<?xml version="1.0" encoding="utf-8"?>
<!-- Generator: Adobe Illustrator 27.5.0, SVG Export Plug-In . SVG Version: 6.00 Build 0)  -->
<svg version="1.1" id="Ñëîé_1" xmlns="http://www.w3.org/2000/svg" xmlns:xlink="http://www.w3.org/1999/xlink" x="0px" y="0px"
	 viewBox="0 0 2600 2000" style="enable-background:new 0 0 2600 2000;" xml:space="preserve">
<rect id="_x31_4" style="fill:#FFFFFF;" width="2600" height="2000"/>
<g>
	<g id="_x31_3">
		<path style="fill:#DCE6FF;" d="M427.715,1540.277c-4.161-12.925-8.279-26.318-12.237-39.805l9.756-2.941
			c3.933,13.401,8.023,26.706,12.157,39.545L427.715,1540.277z M2173.02,1523.585l-10.101-1.264
			c1.677-13.759,3.27-27.615,4.734-41.184l10.118,1.122C2176.302,1495.876,2174.703,1509.78,2173.02,1523.585z M404.242,1460.377
			c-3.563-13.33-7.017-26.907-10.269-40.356l9.886-2.456c3.232,13.368,6.666,26.864,10.207,40.113L404.242,1460.377z
			 M2181.938,1440.865l-10.132-0.971c1.288-13.814,2.48-27.71,3.544-41.3l10.146,0.815
			C2184.428,1413.052,2183.231,1426.999,2181.938,1440.865z M384.672,1379.428c-2.94-13.58-5.737-27.312-8.314-40.815l9.993-1.959
			c2.561,13.418,5.341,27.066,8.262,40.562L384.672,1379.428z M2188.417,1357.897l-10.158-0.652
			c0.862-13.804,1.618-27.729,2.245-41.385l10.167,0.48C2190.04,1330.054,2189.282,1344.036,2188.417,1357.897z M369.065,1297.597
			c-2.263-13.747-4.359-27.608-6.228-41.202l10.08-1.424c1.857,13.502,3.939,27.271,6.187,40.927L369.065,1297.597z
			 M2192.225,1274.746l-10.174-0.299c0.397-13.865,0.671-27.805,0.814-41.431l10.178,0.109
			C2192.899,1246.814,2192.624,1260.817,2192.225,1274.746z M357.729,1215.027c-1.517-13.885-2.838-27.85-3.926-41.506l10.145-0.83
			c1.08,13.555,2.391,27.417,3.897,41.201L357.729,1215.027z M2182.906,1191.581c-0.12-13.876-0.38-27.811-0.773-41.418
			l10.175-0.302c0.394,13.678,0.656,27.684,0.777,41.63L2182.906,1191.581z M351.134,1131.906
			c-0.675-13.967-1.123-27.989-1.331-41.678l10.177-0.16c0.206,13.575,0.65,27.481,1.319,41.333L351.134,1131.906z
			 M2180.497,1108.781c-0.699-13.858-1.558-27.762-2.553-41.327l10.149-0.766c1.002,13.644,1.865,27.629,2.569,41.566
			L2180.497,1108.781z M360.077,1048.72l-10.176-0.212c0.284-14.004,0.83-28.031,1.625-41.689l10.161,0.607
			C360.899,1020.953,360.357,1034.846,360.077,1048.72z M2174.413,1026.209c-1.359-13.855-2.899-27.693-4.576-41.131l10.098-1.294
			c1.688,13.528,3.237,27.458,4.606,41.404L2174.413,1026.209z M364.914,966.241l-10.127-1.031
			c1.383-13.951,3.068-27.895,5.01-41.445l10.073,1.483C367.948,938.648,366.281,952.44,364.914,966.241z M2164.139,944.105
			c-2.118-13.768-4.442-27.484-6.909-40.766l10.002-1.909c2.488,13.388,4.831,27.212,6.965,41.086L2164.139,944.105z
			 M960.39,942.649c-14.143-2.26-24.373-8.786-38.543-20.055l6.433-7.994c12.414,9.846,21.38,15.753,33.194,17.791L960.39,942.649z
			 M995.703,918.104l-9.064-4.692c4.659-9.248,8.778-22.081,12.243-38.143l9.943,2.203
			C1005.123,894.636,1000.831,907.927,995.703,918.104z M891.976,893.006c-8.108-9.152-16.773-19.685-26.49-32.201l7.998-6.38
			c9.579,12.339,18.105,22.704,26.065,31.688L891.976,893.006z M376.667,884.545l-9.992-1.966c2.637-13.77,5.62-27.5,8.868-40.81
			l9.881,2.477C382.217,857.388,379.271,870.946,376.667,884.545z M2149.003,862.841c-3.014-13.626-6.266-27.134-9.664-40.149
			l9.84-2.639c3.431,13.141,6.713,26.779,9.754,40.533L2149.003,862.841z M1015.673,835.952l-10.095-1.317
			c1.563-12.314,2.964-25.799,4.283-41.226l10.14,0.891C1018.67,809.87,1017.254,823.495,1015.673,835.952z M840.557,827.567
			c-8.274-11.325-16.855-23.297-24.249-33.628l8.239-6.058c7.38,10.312,15.944,22.259,24.19,33.547L840.557,827.567z
			 M1585.723,826.718c-7.926,0-15.704-2.4-23.115-7.134l5.427-8.729c11.133,7.124,22.086,7.14,33.912,1.458l4.379,9.313
			C1599.333,825.005,1592.402,826.718,1585.723,826.718z M396.25,804.49l-9.733-3.017c4.044-13.405,8.481-26.736,13.187-39.625
			l9.545,3.581C404.611,778.132,400.237,791.274,396.25,804.49z M1639.608,794.654l-7.478-6.998
			c7.717-8.472,15.99-18.922,25.291-31.949l8.246,6.049C1656.126,775.118,1647.603,785.879,1639.608,794.654z M1533.667,787.561
			c-6.587-10.3-13.114-22.429-19.955-37.081l9.2-4.413c6.646,14.234,12.958,25.971,19.297,35.882L1533.667,787.561z
			 M2128.094,782.992c-4.1-13.367-8.475-26.526-13.004-39.11l9.562-3.535c4.584,12.74,9.012,26.057,13.161,39.583L2128.094,782.992z
			 M792.187,760.304c-9.312-12.899-17.072-23.49-24.423-33.328l8.114-6.228c7.385,9.884,15.177,20.517,24.523,33.464
			L792.187,760.304z M1023.063,752.636l-10.157-0.666c0.771-12.087,1.557-25.672,2.4-41.532l10.163,0.555
			C1024.624,726.891,1023.837,740.512,1023.063,752.636z M424.506,727.24l-9.312-4.165c5.587-12.827,11.542-25.422,17.868-37.739
			l9.025,4.769C435.862,702.224,430.004,714.618,424.506,727.24z M1688.984,727.238l-8.505-5.668
			c7.233-11.146,14.704-22.955,22.267-34.885l8.563,5.577C1703.728,704.222,1696.249,716.041,1688.984,727.238z M1497.328,711.981
			c-4.611-11.721-9.374-24.509-14.564-39.095l9.574-3.5c5.152,14.477,9.877,27.16,14.445,38.774L1497.328,711.981z
			 M2100.118,705.546c-5.472-12.92-11.26-25.47-17.204-37.302l9.071-4.681c6.044,12.031,11.927,24.787,17.487,37.913
			L2100.118,705.546z M742.634,694.286c-9.236-11.62-17.832-21.962-26.281-31.617l7.614-6.846
			c8.557,9.778,17.255,20.242,26.593,31.991L742.634,694.286z M1027.587,669.377l-10.166-0.519
			c0.686-13.783,1.367-27.573,2.094-41.605l10.164,0.541C1028.953,641.818,1028.272,655.601,1027.587,669.377z M1733.623,657.418
			l-8.491-5.688c8.504-13.042,16.11-24.325,23.253-34.491l8.29,5.984C1749.601,633.29,1742.061,644.475,1733.623,657.418z
			 M462.273,654.506l-8.579-5.552c7.998-12.696,16.245-24.164,24.511-34.082l7.776,6.657
			C478.005,631.099,470.029,642.194,462.273,654.506z M1469.174,633.517c-4.668-13.864-9.247-27.737-13.111-39.478l9.655-3.264
			c3.859,11.725,8.431,25.576,13.089,39.41L1469.174,633.517z M688.368,632.795c-10.403-10.266-20.632-19.335-30.402-26.955
			l6.207-8.176c10.082,7.863,20.611,17.196,31.295,27.739L688.368,632.795z M2063.152,632.354
			c-7.293-12.063-14.94-23.472-22.728-33.91l8.117-6.223c7.988,10.705,15.824,22.394,23.289,34.742L2063.152,632.354z
			 M514.529,593.461l-6.173-8.203c12.155-9.398,24.805-16.176,37.599-20.144l2.978,9.865
			C537.296,578.589,525.721,584.807,514.529,593.461z M1781.224,590.305l-7.907-6.496c9.545-11.938,18.59-22.21,27.651-31.404
			l7.2,7.291C1799.359,568.636,1790.545,578.648,1781.224,590.305z M1031.96,586.249l-10.16-0.614
			c0.881-14.996,1.756-28.614,2.675-41.632l10.152,0.736C1033.711,557.716,1032.839,571.295,1031.96,586.249z M624.316,584.089
			c-12.701-6.406-25.193-10.495-37.13-12.153l1.382-10.221c13.036,1.811,26.589,6.231,40.283,13.138L624.316,584.089z
			 M2014.24,567.412c-9.798-10.176-19.945-19.158-30.154-26.696l5.993-8.339c10.669,7.877,21.25,17.24,31.446,27.829
			L2014.24,567.412z M1443.08,554.562c-5.063-15.35-9.236-27.865-13.131-39.388l9.627-3.345
			c3.905,11.548,8.085,24.086,13.156,39.461L1443.08,554.562z M1838.63,533.363l-5.834-8.453
			c12.517-8.877,25.16-15.45,37.579-19.538l3.143,9.812C1862.06,518.955,1850.322,525.072,1838.63,533.363z M1949.686,520.724
			c-12.606-5.39-25.366-8.725-37.925-9.914l0.946-10.272c13.597,1.288,27.369,4.881,40.934,10.681L1949.686,520.724z
			 M1037.883,503.32l-10.138-0.913c1.268-14.475,2.648-28.454,4.101-41.55l10.115,1.153
			C1040.517,475.027,1039.145,488.925,1037.883,503.32z M1416.406,475.935c-4.918-13.914-9.552-26.634-14.169-38.884l9.508-3.681
			c4.642,12.318,9.3,25.103,14.243,39.085L1416.406,475.935z M1047.143,420.874l-10.074-1.476
			c2.059-14.444,4.322-28.335,6.726-41.286l10.003,1.907C1051.42,392.828,1049.181,406.573,1047.143,420.874z M1387.116,398.532
			c-5.469-13.334-10.981-26.092-16.386-37.918l9.236-4.336c5.46,11.95,11.028,24.834,16.549,38.294L1387.116,398.532z
			 M1062.441,339.649l-9.875-2.5c3.55-14.406,7.464-27.976,11.632-40.332l9.63,3.338
			C1069.753,312.236,1065.921,325.523,1062.441,339.649z M1352.655,323.588c-6.694-12.779-13.532-24.776-20.325-35.657l8.601-5.516
			c6.929,11.101,13.898,23.326,20.714,36.335L1352.655,323.588z M1089.114,262.357l-9.127-4.566
			c6.683-13.725,14.094-25.861,22.028-36.072l7.995,6.384C1102.515,237.749,1095.484,249.274,1089.114,262.357z M1309.002,254.471
			c-8.893-11.301-18.073-21.311-27.283-29.753l6.828-7.652c9.617,8.815,19.176,19.236,28.412,30.971L1309.002,254.471z
			 M1138.407,201.363l-5.487-8.689c12.057-7.822,25.341-12.908,39.484-15.116l1.549,10.196
			C1161.222,189.742,1149.262,194.321,1138.407,201.363z M1249.606,201.357c-11.856-6.479-24.207-10.908-36.708-13.164l1.785-10.157
			c13.569,2.449,26.944,7.241,39.754,14.24L1249.606,201.357z"/>
		<path style="fill:#D4E8FF;" d="M488.499,1603.365c0,0-157.348-680.334,29.429-831.828
			c124.842-101.259,257.169,121.961,415.109,3.873c140.612-105.132,95.911-424.986,320.166-469.196
			c252.136-49.707,307.653,546.865,514.57,465.324c251.08-98.945,486.447,93.901,338.823,833.127L488.499,1603.365z"/>
		<path style="fill:#EEF7FF;" d="M2262.667,1362.981c-86.661-14.337-72.519,115.193-196.048,115.193
			c-112.941,0-149.074-493.278-231.248-352.271c-421.276,722.885-176.649-307.42-511.682-320.513
			c-151.493-5.92-252.44,174.38-289.666,493.608c-53.961,288.594-179.103-220.115-307.889-172.817
			c-81.85,30.061-72.476,351.992-185.417,351.992c-123.528,0-109.387-129.531-196.047-115.193
			c-93.304,15.436-121.173,244.703-121.173,244.703H2383.84C2383.84,1607.685,2355.971,1378.418,2262.667,1362.981z"/>
		<path style="fill:#DCE6FF;" d="M2185.924,1503.193c-79.725-6.122-66.716,49.189-180.359,49.189
			c-103.903,0-101.048-123.96-170.579-150.305c-128.045-48.516-233.608,197.028-283.25,73.795
			c-94.285-326.991-369.273-490.975-496.135,0c-49.643,123.233-165.732-96.659-283.25-73.795
			c-72.337,14.073-66.676,150.305-170.58,150.305c-113.643,0-100.633-55.311-180.359-49.189
			c-85.837,6.592-111.476,104.491-111.476,104.491H2297.4C2297.4,1607.685,2271.762,1509.785,2185.924,1503.193z"/>
		<path id="_x35__7_" style="fill:#CFDDF9;" d="M223.497,1607.685c0,0-48.077,59.278,55.831,94.303
			c96.959,32.683,583.43,30.045,460.958,64.089c-69.136,19.218,35.293,45.314,372.035,54.923s919.724-30.327,720.19-73.895
			c-220.222-48.085,617.812,15.198,551.33-139.42H223.497z"/>
	</g>
	<path id="_x31_2" style="fill:#EB5648;" d="M853.91,831.024c-6.647-91.644-24.164-175.1-45.313-246.897
		c-2.66,10.738-31.246,43.378-38.409,37.409c-7.953-6.799,25.926-47.057,35.634-46.679c-1.475-4.865-2.963-9.677-4.467-14.43
		c-2.967,10.193-38.187,40.353-44.787,33.109c-6.809-7.942,32.841-42.491,42.381-40.638c-1.936-5.986-3.891-11.877-5.862-17.674
		c-3.61,10.216-37.902,39.297-44.315,32.169c-6.617-7.898,31.488-41.228,41.422-40.572c-2.011-5.78-4.032-11.485-6.063-17.062
		c-2.287,9.688-45.232,36.429-50.848,27.796c-5.565-8.949,40.086-37.276,48.832-33.259c-1.989-5.38-3.981-10.682-5.977-15.863
		c-3.916,9.642-44.523,34.602-49.997,26.263c-5.245-8.834,37.427-35.497,47.209-33.416c-2.432-6.2-4.861-12.25-7.281-18.143
		c-4.206,9.622-44.357,34.213-49.781,25.932c-5.178-8.766,36.684-35.014,46.692-33.4c-1.894-4.525-3.775-8.927-5.647-13.256
		c-4.82,8.998-50.123,27.415-54.183,18.142c-3.592-9.426,41.236-28.056,51.105-25.203c-2.709-6.142-5.288-11.926-7.996-17.768
		c-5.566,8.83-49.601,26.563-53.592,17.448c-3.527-9.215,39.617-27.368,49.963-25.273c-2.084-4.447-4.158-8.789-6.222-13.056
		c-5.139,8.369-55.975,17.329-57.914,7.126c-1.474-9.839,45.174-18.366,54.62-13.884c-2.57-5.231-5.118-10.322-7.635-15.261
		c-5.474,8.238-55.764,17.074-57.726,6.922c-1.473-9.728,44.349-18.212,54.076-14.027c-2.743-5.29-5.441-10.395-8.089-15.318
		c-57.779,25.501-81.595-8.081-5.653-10.377c-2.642-4.788-5.221-9.383-7.724-13.767c-8.125,6.328-56.459,6.229-56.725-3.827
		c-0.255-8.783,40.247-10.339,50.905-6.229c-2.324-3.965-4.567-7.731-6.72-11.293c-6.536,7.21-58.852,3.948-58.285-6.485
		c0.568-9.168,43.12-7.516,52.964-2.212c-3.335-5.382-6.392-10.19-9.111-14.379c-7.761,6.364-57.684,3.11-57.245-7.122
		c0.223-8.624,39.967-7.71,50.497-3.078c-2.531-3.747-4.461-6.509-5.731-8.298c-10.141-2.284-41.335-38.427-33.973-45.174
		c3.505-3.062,15.226,4.616,26.179,17.15c13.24,14.497,11.314,20.843,20.145,32.531c-1.853-11.4,6.658-49.633,14.944-47.747
		c10.364,1.855,0.954,54.584-7.842,58.515c2.526,3.905,5.318,8.302,8.346,13.182c-0.064-11.303,16.916-49.155,25.15-45.599
		c9.529,4.108-10.122,51.714-19.398,54.998c2.543,4.21,5.198,8.673,7.973,13.434c1-11.287,21.116-47.29,28.957-43.035
		c8.987,4.911-13.922,49.341-23.381,52.733c2.506,4.408,5.082,9.014,7.72,13.816c1.763-11.109,25.333-45.815,32.912-40.853
		c8.452,5.685-18.07,47.438-27.798,50.258c2.404,4.477,4.852,9.117,7.332,13.892c2.461-10.716,31.295-43.777,38.545-37.781
		c7.664,6.741-24.176,44.852-34.174,46.278c2.227,4.374,4.477,8.875,6.745,13.474c2.833-10.186,38.234-40.549,44.864-33.282
		c6.6,7.887-31.34,41.094-41.311,40.55c2.334,4.816,4.681,9.723,7.04,14.766c2.305-10.142,38.421-41.305,45.161-33.945
		c6.745,7.931-32.394,42.075-42.074,40.618c2.552,5.494,4.976,10.925,7.519,16.669c2.964-10.193,38.188-40.358,44.788-33.113
		c6.635,7.905-31.618,41.349-41.518,40.582c1.764,4.064,3.537,8.211,5.32,12.449c4.904-9.543,43.935-33.22,49.215-25.087
		c5.075,8.63-35.43,34.198-45.773,33.356c2.112,5.124,4.23,10.339,6.353,15.696c4.311-9.612,44.296-34.07,49.7-25.811
		c5.182,8.77-36.732,35.046-46.726,33.401c2.119,5.453,4.238,11.028,6.352,16.706c3.273-9.676,44.83-35.374,50.38-26.914
		c5.381,8.905-38.642,36.306-47.989,33.367c1.917,5.236,3.824,10.58,5.724,15.995c4.924-9.165,47.988-29.625,52.535-20.744
		c4.198,9.26-40.123,30.813-49.937,28.195c2.003,5.826,3.986,11.777,5.957,17.798c3.134-9.405,48.962-31.522,53.618-22.306
		c4.489,9.476-43.202,32.403-51.788,27.917c2.041,6.338,4.052,12.796,6.042,19.338c4.773-8.791,52.635-24.101,55.969-14.393
		c2.936,9.858-45.077,25.319-54.008,20.859c21.82,73.163,39.98,158.582,46.794,252.542L853.91,831.024z"/>
	<path id="_x31_1" style="fill:#8A9EDD;" d="M868.009,707.302c-9.028-4.331-60.272,76.732-62.03,90.478
		c-5.815-11.315-13.787-24.074-24.642-37.343c9.795-4.408,50.804-100.915,41.512-105.169c-9.674-2.772-46.442,87.357-45.298,100.658
		c-8.776-10.187-19.284-20.606-31.857-30.848c9.084-1.9,33.402-110.581,23.236-112.081c-10.078-1.638-31.422,99.933-26.191,109.713
		c-8.928-7.071-18.837-14.043-29.88-20.774c8.118-8.128,22.453-109.697,12.46-111.674c-10.028-0.123-22.13,95.559-17.774,108.513
		c-9.39-5.52-20.126-11.029-30.781-15.994c6.632-9.771,5.42-111.4-4.733-111.939c-9.836,1.464-7.418,95.977-1.422,108.993
		c-11.102-5.349-21.516-10.56-31.27-15.617c6.329-10.704,5.124-110.556-4.977-111.261c-9.708,1.484-7.454,93.767-1.771,107.736
		c-11.68-6.161-22.361-12.079-32.142-17.736c6.495-10.194,5.289-111.032-4.843-111.652c-9.714,1.484-7.452,93.872-1.755,107.799
		c-10.837-6.404-20.465-12.441-29.014-18.078c7.358-7.436,6.065-113.219-4.166-113.251c-9.903,1.427-7.401,97.225-1.222,109.659
		c-11.536-7.793-20.896-14.742-28.425-20.738c6.6-7.967-6.324-113.366-16.494-112.218c-9.433,2.523,2.746,93.164,9.844,106.782
		c-24.081-18.898-20.366-29.592-44.134-58.497c-45.232-59.439-58.05-49.665-12.533,9.585c23.326,30.535,30.836,34.17,49.336,51.2
		c-14.973-7.863-98.947-26.102-101.793-17.269c-2.953,9.842,106.477,33.112,111.664,25.472c7.195,5.738,16.033,12.313,26.801,19.641
		c-14.961-5.341-104.565-7.614-105.916,1.896c-0.897,10.232,110.358,12.138,114.395,3.767c8.3,5.436,17.604,11.238,28.004,17.371
		c-16.265-1.916-102.825,13.526-102.192,22.969c2.39,9.922,104.01-9.138,111.281-17.687c9.34,5.351,19.492,10.935,30.513,16.733
		c-15.008-0.814-103.028,27.21-101.174,36.832c3.41,9.647,103.816-23.654,108.431-33.052c9.793,5.059,20.241,10.274,31.379,15.631
		c-15.703,2.34-95.81,42.614-92.515,51.638c5.438,8.551,94.017-37.13,100.596-47.781c10.565,4.951,20.637,10.292,29.739,15.701
		c-11.796-1.622-102.568,43.469-98.675,52.856c4.148,9.39,102.532-41.129,102.587-50.509c10.451,6.404,19.862,13.02,28.351,19.726
		c-12.643-0.811-101.475,43.344-97.782,52.752c4.903,8.979,98.667-39.358,101.949-49.393c12.327,10.143,22.589,20.44,31.111,30.477
		c-11.777-2.443-105.557,35.093-102.466,44.766c4.176,9.338,101.447-31.289,105.568-41.033c10.484,12.903,18.139,25.27,23.71,36.202
		c-13.792-1.73-105.056,27.158-103.099,36.945c4.174,9.162,96.688-21.502,105.993-31.015c15.403,33.02,15.541,58.178,15.54,58.483
		l6.362,0.03c0.006-1.126-0.069-27.299-16.591-62.178C819.281,800.705,876.387,713.151,868.009,707.302z"/>
	<path id="_x31_0" style="fill:#F4D4BE;" d="M1722.149,937.158c54.415-52.866,111.039-94.715,163.501-127.379
		c-4.255,8.081-4.548,43.906,3.147,44.158c8.638,0.173,9.849-43.255,3.654-48.351c3.581-2.191,7.141-4.341,10.677-6.446
		c-3.766,7.914,1.393,45.852,9.441,45.008c8.56-1.16,3.076-44.235-3.824-48.331c4.481-2.629,8.921-5.188,13.319-7.681
		c-3.382,8.281,1.798,45.045,9.666,44.169c8.418-1.237,3.218-42.713-3.269-47.763c4.414-2.46,8.792-4.869,13.107-7.193
		c-3.909,7.23,7.893,47.3,16.096,45.059c8.346-2.463-4.255-44.997-11.853-47.321c4.18-2.226,8.32-4.401,12.395-6.501
		c-2.879,8.096,8.459,45.784,16.413,43.647c8.085-2.568-3.592-42.44-10.766-46.527c4.904-2.488,9.724-4.886,14.452-7.19
		c-2.689,8.242,8.57,45.453,16.461,43.324c8.006-2.563-3.398-41.733-10.456-46.233c3.652-1.751,7.23-3.433,10.761-5.074
		c-1.968,8.196,15.858,44.426,23.453,40.937c7.391-3.84-10.025-39.941-17.678-43.602c5.042-2.303,9.812-4.446,14.686-6.572
		c-1.419,8.499,16.003,43.619,23.47,40.189c7.235-3.747-9.407-38.632-16.937-43.019c3.724-1.597,7.394-3.144,11.007-4.641
		c-1.434,7.979,25.004,41.427,31.803,36.199c6.312-5.26-17.782-36.138-26.068-38.555c4.461-1.816,8.827-3.554,13.095-5.219
		c-1.152,8.084,25.014,41.151,31.799,35.967c6.25-5.191-17.353-35.585-25.649-38.342c4.595-1.756,9.065-3.424,13.401-5.006
		c1.49,8.855,24.843,37.425,31.084,32.614c5.778-4.279-13.786-31.039-21.902-35.909c4.26-1.503,8.372-2.918,12.324-4.248
		c1.535,8.364,31.398,34.842,37.083,28.786c4.98-5.277-19.149-28.478-27.978-31.793c3.613-1.17,7.064-2.26,10.349-3.275
		c0.068,8.034,34.126,34.751,39.505,28.005c4.684-5.966-22.469-28.313-31.451-30.445c5.017-1.489,9.536-2.773,13.516-3.864
		c1.291,8.185,33.865,33.59,39.212,27.038c4.598-5.44-20.414-26.698-29.45-29.623c3.601-0.916,6.323-1.564,8.089-1.971
		c7.508,4.159,46.589-1.002,45.754-9.205c-0.48-3.813-11.924-5.513-25.561-3.797c-16.124,1.671-18.421,6.642-30.283,9
		c7.401-6.013,23.144-34.263,16.999-37.649c-7.41-4.546-30.553,33.133-27.292,40.389c-3.699,1.021-7.84,2.2-12.381,3.546
		c6.244-6.936,16.553-39.599,9.524-41.925c-8.132-2.698-22.149,37.441-18.235,44.563c-3.872,1.197-7.976,2.5-12.291,3.91
		c5.58-7.51,12.942-40.756,5.77-42.437c-8.237-1.905-18.503,38.064-14.536,45.352c-3.963,1.342-8.082,2.769-12.341,4.28
		c5.01-7.82,9.528-42.157,2.131-43.257c-8.334-1.134-14.902,39.174-10.451,46.255c-3.942,1.442-7.994,2.955-12.147,4.538
		c4.365-7.961,4.734-44.175-3.028-44.457c-8.427-0.05-9.716,40.929-4.336,47.3c-3.777,1.476-7.627,3.006-11.552,4.599
		c3.84-7.842-1.32-45.989-9.397-45.147c-8.4,1.24-3.237,42.539,3.208,47.683c-4.079,1.687-8.226,3.432-12.445,5.245
		c4.146-7.521-1.016-46.566-9.214-45.728c-8.513,1.189-3.125,43.721,3.641,48.145c-4.586,1.996-9.064,4.007-13.784,6.155
		c3.768-7.912-1.392-45.854-9.44-45.01c-8.432,1.232-3.204,42.858,3.322,47.821c-3.319,1.538-6.689,3.121-10.115,4.756
		c2.215-8.577-8.855-44.608-16.577-42.491c-7.867,2.535,3.073,40.541,9.914,45.701c-4.116,2-8.285,4.053-12.536,6.192
		c2.619-8.295-8.611-45.331-16.478-43.205c-8.011,2.563,3.41,41.78,10.476,46.253c-4.301,2.199-8.668,4.474-13.089,6.815
		c3.293-7.765-8.225-46.429-16.292-44.258c-8.208,2.537,3.896,43.605,11.274,46.925c-4.057,2.176-8.167,4.425-12.312,6.721
		c1.996-8.355-13.328-44.617-21.008-41.636c-7.673,3.406,7.826,41.032,15.315,44.805c-4.434,2.493-8.924,5.074-13.445,7.705
		c3.232-7.521-12.887-46.322-20.818-43.194c-7.971,3.379,8.852,43.702,16.609,45.649c-4.738,2.788-9.525,5.666-14.343,8.608
		c1.883-8.042-19.227-43.762-26.613-39.606c-7.223,4.468,13.898,40.363,21.854,42.517
		c-53.626,33.139-111.723,75.845-167.514,130.047L1722.149,937.158z"/>
	<path id="_x39_" style="fill:#CE4ABF;" d="M1919.473,481.525c6.108,17.434,10.122,33.088,11,41.807
		c4.763-9.607,9.359-18.459,13.771-26.609c-7.496-6.012-26.025-93.21-17.522-95.412c8.131-0.665,23.172,73.363,21.88,87.481
		c5.064-9.077,9.865-17.206,14.372-24.462c-7.289-3.285-7.95-99.114,0.878-98.534c3.75-0.005,6.822,22.172,6.861,49.534
		c0.025,17.433-1.189,32.754-3.042,41.587c6.084-9.419,11.561-17.163,16.351-23.474c-6.684-4.296,11.084-98.986,19.616-96.632
		c7.649,2.339-6.293,74.841-12.76,87.967c14.233-16.238,17.281-22.846,43.047-43.522c50.038-40.388,58.743-29.582,8.507,10.591
		c-24.413,21.073-33.633,18.048-49.432,39.193c11.486-6.382,89.414-18.757,91.7-10.678c1.15,8.736-89.194,22.021-96.241,16.515
		c-5.005,6.604-10.792,14.803-17.261,24.893c10.486-5.575,93.053-9.709,94.405-1.213c0.132,8.808-90.777,12.101-97.385,5.925
		c-4.675,7.474-9.672,15.885-14.959,25.345c11.779-5.192,91.417-9.049,92.814-0.717c-0.396,8.736-87.007,11.847-95.995,6.475
		c-4.666,8.535-9.539,17.85-14.6,28.03c11.816-5.18,91.365-9.028,92.761-0.702c-0.473,8.712-86.23,11.801-95.656,6.583
		c-4.15,8.5-8.42,17.57-12.794,27.235c10.99-5.43,92.453-9.466,93.835-1.028c-0.323,8.753-87.621,11.886-96.244,6.386
		c-4.021,9.19-8.428,18.35-13.123,26.822c10.979-4.028,93.732,4.433,93.755,13.057c-1.562,8.633-89.129-1.592-96.369-8.415
		c-5.34,9.277-11.068,17.996-17.167,26.119c8.406-4.635,96.09,11.603,94.869,20.301c-1.166,8.763-94.829-9.862-96.901-17.626
		c-7.875,10.187-16.4,19.501-25.826,28.008c11.431-1.225,89.705,28.549,87.461,36.899c-3.547,8.05-87.146-25.134-91.327-33.505
		c-9.976,8.547-20.573,15.886-31.683,21.929c11.792,1.173,82.768,43.705,79.16,51.518c-4.909,7.299-81.344-39.974-84.036-48.959
		c-29.677,14.941-52.202,15.547-53.172,15.565l-0.108-5.476c0.224-0.005,21.889-0.633,50.015-14.585
		c-8.354-7.729-36.708-86.876-28.883-90.584c8.41-1.81,35.097,75.981,33.927,87.971c9.294-5.021,19.779-11.864,30.668-21.155
		c-8.45-3.292-45.47-86.272-37.497-90.011c8.289-2.795,42.471,77.008,40.645,87.265c8.463-7.542,17.113-16.587,25.588-27.406
		c-8.678-2.565-52.269-82.364-44.617-86.724c8.057-3.307,47.817,72.099,47.422,83.068c5.596-7.445,11.096-15.682,16.391-24.809
		c-8.064,0.167-53.6-83.506-45.59-87.25c8.031-3.483,48.645,73.585,47.53,83.836c4.467-7.945,8.858-16.726,12.9-25.921
		c-9.266-5.366-50.485-80.802-43.203-85.594c7.738-2.953,43.972,65.02,46.354,78.56c4.381-9.698,8.653-18.798,12.805-27.331
		c-8.164-3.717-38.941-89.56-30.687-92.641C1900.222,435.773,1910.426,455.702,1919.473,481.525z"/>
	<path id="_x38_" style="fill:#EB5648;" d="M1199.856,1333.017c-23.11,50.679,18.395,113.14,73.905,111.406v152.618
		c0,15.175-12.299,27.474-27.474,27.474c-2.947-0.506-465.579,0.496-468.042-0.111c-14.042-1.217-25.059-13.004-25.059-27.363
		v-465.619c0-15.175,12.299-27.474,27.474-27.474h152.608c0-0.009,0-0.009,0-0.009c1.469-104.911,158.521-105.813,160.402,0
		c0,0,0,0,0,0.009c220.962,4.169,175.7-40.161,180.091,180.082C1241.587,1283.882,1212.198,1303.628,1199.856,1333.017z"/>
	<path id="_x37_" style="fill:#CE4ABF;" d="M999.354,912.583c-50.68-23.11-113.14,18.395-111.407,73.905H735.33
		c-15.175,0-27.474-12.299-27.474-27.474c0.506-2.947-0.496-465.579,0.11-468.042c1.218-14.042,13.004-25.059,27.363-25.059h465.619
		c15.175,0,27.474,12.299,27.474,27.474v152.608c0.009,0,0.009,0,0.009,0c104.911,1.469,105.813,158.521,0,160.402c0,0,0,0-0.009,0
		c-4.169,220.962,40.161,175.7-180.082,180.091C1048.49,954.314,1028.743,924.925,999.354,912.583z"/>
	<path id="_x36_" style="fill:#9358E0;" d="M1362.777,512.433h465.619c15.175,0,27.474,12.299,27.474,27.474v465.628
		c0,15.165-12.299,27.474-27.474,27.474h-152.608c-2.811,106.081-157.913,105.412-160.402,0
		c-220.958-4.164-175.689,40.145-180.082-180.082c106.494-3.515,105.492-157.375,0-160.411V539.907
		C1335.285,524.604,1347.839,512.389,1362.777,512.433z"/>
	<g id="_x35_">
		<path style="fill:#F99370;" d="M567.27,1201.462c12.51,16.063,22.703,33.81,31.299,52.211c4.109,8.593,7.352,17.679,10.829,26.523
			c7.924,18.213,20.933,33.966,35.538,47.334c9.494,5.789,2.635,19.581-7.391,14.29c-11.48-7.147-21.912-15.63-31.434-25.293
			c-19.115-17.977-27.726-43.464-43.177-64.188c-6.837-9.521-14.121-18.769-22.243-27.178
			C520.415,1206.931,551.122,1179.348,567.27,1201.462z"/>
		<path style="fill:#1D3F70;" d="M642.018,1324.97c0,0-6.541,1.203-10.368,13.242c0,0-3.027-1.35-7.904-3.968
			c-4.442-2.387-10.432-5.818-17.069-10.246c-5.984-4-12.493-8.794-18.874-14.356c-6.247-5.434-12.378-11.591-17.767-18.439
			c-23.712-30.1-12.922-99.317-12.922-99.317s19.828,5.171,35.188,37.076c13.971,29.031,24.128,60.98,43.649,88.117
			C637.878,1319.76,639.894,1322.391,642.018,1324.97z"/>
		<path style="fill:#F99370;" d="M668.726,1330.75c-0.401,2.811-7.234,0.668-9.716,1.706c2.829,3.575,6.784,6.235,6.785,6.268
			c5.264,2.174,10.631,4.029,16.111,5.63c5.945,6.448-15.369,0.044-17.464-0.267c-0.015,0.027-0.032,0.054-0.047,0.081
			c4.796,3.445,9.808,6.603,15.078,9.276c4.562,8.179-16.532-4.251-18.504-5.258c-0.012,0.01-0.024,0.02-0.036,0.03
			c3.883,4.069,8.317,7.61,13.1,10.577c3.7,8.711-16.361-5.665-17.964-7.377c-0.022,0.011-0.043,0.022-0.065,0.033
			c2.537,3.686,5.586,7.011,8.795,10.131c2.16,8.614-12.774-6.105-14.148-7.842c-1.762-1.233-9.846-8.039-13.968-12.784
			c-2.188-2.519,6.163-14.835,9.08-13.397c2.189,1.079,8.983,0.409,10.488,0.685C658.853,1328.192,668.609,1327.434,668.726,1330.75
			z"/>
		<path style="fill:#17375E;" d="M606.677,1323.997c-5.984-4-12.493-8.794-18.874-14.356l-13.389-93.173
			c0,0,11.411,16.391,21.869,57.87C602.67,1299.67,605.467,1315.504,606.677,1323.997z"/>
		<path style="fill:#F99370;" d="M612.333,1201.297c1.592-5.94,4.166-12.219,9.063-16.135c1.421-1.117,4.315-1.752,3.271-4.13
			c-1.196-2.341-5.172-1.071-6.882-0.326c-6.402,3.44-10.727,10.486-13.246,17.085
			C601.425,1205.949,610.862,1208.584,612.333,1201.297z"/>
		<path style="fill:#F99370;" d="M549.362,1189.615c2.457-11.54,2.244-28.543,1.28-35.631c-1.625-13.941-23.8-10.734-21.488,3.041
			c0.741-0.372,0.604,24.597-1.598,31.32C506.637,1192.495,565.876,1218.411,549.362,1189.615z"/>
		<path style="fill:#8E4A35;" d="M565.196,1137.397c0,0-0.59-11.351-4.406-19.058l-6.379,3.408L565.196,1137.397z"/>
		<path style="fill:#F99370;" d="M566.539,1170.622c-9.773,10.226-31.807,12.526-39.773,4.447
			c-29.725-30.146,9.86-96.516,33.875-45.324C568.74,1144.318,582.264,1151.282,566.539,1170.622z"/>
		<path style="fill:#C16256;" d="M549.907,1141.573c0.339-0.727,0.024-1.592-0.703-1.931s-1.593-0.024-1.932,0.703
			c-0.339,0.727-0.024,1.592,0.703,1.931C548.703,1142.615,549.567,1142.3,549.907,1141.573z"/>
		<path style="fill:#C16256;" d="M562.051,1139.106c0.339-0.727,0.024-1.592-0.703-1.931c-0.728-0.339-1.593-0.024-1.932,0.703
			c-0.339,0.727-0.024,1.592,0.703,1.931C560.847,1140.148,561.712,1139.833,562.051,1139.106z"/>
		<path style="fill:#C16256;" d="M558.699,1151.814c-0.848,0.13-1.717,0.114-2.459-0.096c-0.292-0.082-0.463-0.387-0.379-0.678
			c0.08-0.294,0.39-0.463,0.678-0.379c1.866,0.523,4.442-0.489,4.77-1.333c0.116-0.298-0.289-0.574-0.65-0.755
			c-3.173-1.582-5.467-7.407-5.562-7.655c-0.109-0.283,0.031-0.602,0.314-0.712c0.275-0.103,0.601,0.029,0.712,0.314
			c0.022,0.056,2.235,5.677,5.027,7.068c1.523,0.759,1.336,1.747,1.185,2.136C561.942,1150.743,560.361,1151.559,558.699,1151.814z"
			/>
		<path style="fill:#E57D61;" d="M558.696,1125.932c-8.168-3.897-21.94,0.668-29.055,0.85c0,0,1.909,11.952-9.9,20.922
			c-0.639,11.073-2.285,15.954,9.515,29.026l-0.004,0c-0.869-0.5-1.695-1.051-2.487-1.662l-0.012,0.002
			C490.546,1141.144,532.891,1080.776,558.696,1125.932z"/>
		<path style="fill:#8E4A35;" d="M563.955,1102.073c-4.833-8.765-18.413-13.15-29.606-1.719c-8.619,8.801-18.248,9.068-17.74,18.006
			c-17.601,8.746-8.037,28.152-8.037,28.152l8.927-1.373c9.951-8.647,9.215-20.826,9.215-20.826l-0.003-0.002
			c2.287,0.033,4.689-0.148,6.799-0.766c6.539-1.916,16.273-3.07,23.808-0.587C564.853,1125.44,569.357,1111.869,563.955,1102.073z"
			/>
		<path style="fill:#8E4A35;" d="M573.783,1153.866l0-0.002c-0.058-0.21-0.12-0.41-0.186-0.608
			c-8.262-4.257-15.706-0.625-22.575,3.66c-7.374,4.602-14.088,9.957-20.435,7.105c-0.06-0.027-0.119-0.054-0.179-0.083
			c-7.509-3.994-8.097-12.493-7.759-18.758c0.17-3.131,0.57-5.705,0.453-6.879l-0.001-0.005l-5.602,6.845l-0.731,9.001l0,0.002
			l-0.051,0.617l-0.005,0.049l0.001,0.005l-0.456,5.607c0,0.011,0,0.022,0.001,0.032l0,0.002
			c0.261,12.776,8.745,18.774,18.335,21.391c6.722,1.835,13.986,2.011,19.342,1.694c0.995,0.039,1.951,0.006,2.866-0.095
			c12.052-1.302,17.28-13.934,17.599-23.404c0.046-1.277-0.001-2.498-0.133-3.625
			C574.161,1155.498,573.999,1154.642,573.783,1153.866z M552.056,1160.42c5.879-5.599,15.028-10.094,17.501-1.152
			c-2.221,5.581-9.028,7.652-15.642,8.286c-2.42,0.233-4.816,0.272-6.95,0.222C547.246,1165.937,549.289,1163.056,552.056,1160.42z"
			/>
		<path style="fill:#F99370;" d="M507.547,1153.787c1.13,4.573,5.029,7.543,8.71,6.634c3.68-0.909,5.748-5.353,4.618-9.926
			c-1.13-4.573-5.029-7.543-8.71-6.634C508.485,1144.77,506.417,1149.214,507.547,1153.787z"/>
		<path style="fill:#C16256;" d="M516.25,1147.361c-0.146-0.052-3.589-1.239-5.438,0.589c-0.472,0.467-0.776,1.088-0.932,1.841
			c-0.002,0.004-0.002,0.01-0.004,0.015c-0.291,1.42-0.037,3.329,0.785,5.729c0.089,0.255,0.345,0.405,0.604,0.365
			c0.03-0.005,0.064-0.013,0.095-0.023c0.286-0.098,0.44-0.412,0.342-0.7c-0.642-1.871-0.911-3.397-0.83-4.555
			c3.197,0.45,4.899,3.986,4.917,4.024c0.105,0.226,0.346,0.347,0.581,0.311c0.05-0.008,0.1-0.024,0.149-0.046
			c0.275-0.128,0.395-0.454,0.267-0.729c-0.083-0.177-1.949-4.083-5.693-4.642c0.121-0.316,0.277-0.593,0.491-0.806
			c1.349-1.347,4.27-0.345,4.299-0.335c0.287,0.102,0.602-0.051,0.701-0.337C516.686,1147.777,516.535,1147.462,516.25,1147.361z"/>
		<path style="fill:#F99370;" d="M491.499,1657.384l-0.877-0.458c0,0.614-0.759,2.746-1.373,2.746l-25.934,0.534
			c-0.614,0-0.991-1.156-0.991-1.77l-2.212-0.633c0-3.884,0.32-5.291,2.035-8.297c6.309-8.331-1.225-45.881-1.004-55.649
			c-1.554-2.678,27.309-0.577,27.712-1.209c0.649,0.001,1.159,0.554,1.108,1.2l-3.397,42.824
			C485.341,1646.725,491.473,1649.487,491.499,1657.384z"/>
		<path style="fill:#F99370;" d="M623.118,1661.116h-51.657c-4.51-0.181-4.475-4.782-3.644-8.347
			c2.844-12.854-2.184-42.374-3.115-55.594c-0.248-2.421,1.652-4.525,4.085-4.525h22.798c2.471,0,4.382,2.166,4.075,4.618
			l-4.147,33.059c-1.59,15.301,14.234,16.58,24.647,18.689c4.086,1.029,8.359,2.618,10.35,5.671
			C628.368,1657.417,626.421,1661.116,623.118,1661.116z"/>
		<path style="fill:#103663;" d="M565.85,1655.757c0.139,2.532,1.395,5.422,4.329,5.359c0,0,53.582,0,53.582,0
			c13.363-4.096-6.193-22.804-30.324-21.39c-1.906,0.457-14.086,2.127-24.779,0.645
			C568.658,1640.372,565.35,1645.985,565.85,1655.757z"/>
		<path style="fill:#103663;" d="M464.221,1661.117h22.901c11.063-1.256,3.308-21.244-11.448-21.389
			C460.837,1639.582,453.169,1659.884,464.221,1661.117z"/>
		<path style="fill:#E8C0A6;" d="M610.988,1653.865c0.45,0,0.876-0.268,1.055-0.711c2.081-5.133,5.888-6.683,5.926-6.698
			c1.38-0.519,0.533-2.681-0.835-2.118c-0.193,0.076-4.757,1.932-7.201,7.96C609.62,1653.026,610.201,1653.88,610.988,1653.865z"/>
		<path style="fill:#E8C0A6;" d="M602.141,1652.797c0.486,0,0.936-0.314,1.087-0.802c1.822-5.885,6.945-8.603,6.996-8.63
			c1.319-0.659,0.252-2.722-1.049-2.02c-0.245,0.127-6.022,3.194-8.122,9.977C600.818,1652.038,601.39,1652.808,602.141,1652.797z"
			/>
		<path style="fill:#E8C0A6;" d="M592.073,1651.559c0.471,0,0.912-0.295,1.075-0.765c2.126-6.111,7.036-9.437,7.085-9.47
			c1.237-0.796-0.038-2.733-1.258-1.898c-0.227,0.15-5.591,3.759-7.978,10.62C590.731,1650.768,591.307,1651.571,592.073,1651.559z"
			/>
		<path style="fill:#E8C0A6;" d="M467.461,1646.536c8.725-4.912,16.44,1.536,17.664-0.669c1.021-2.307-10.359-5.763-18.24-1.453
			C465.886,1644.955,466.344,1646.578,467.461,1646.536z"/>
		<path style="fill:#0F2E54;" d="M627.511,1655.757H565.85c0.227,1.882,0.747,3.71,1.691,5.359h56.221
			C626.531,1661.121,628.495,1658.345,627.511,1655.757z"/>
		<path style="fill:#0F2E54;" d="M464.221,1661.117h22.901c2.914,0.003,5.258-2.452,5.079-5.359h-33.059
			C458.965,1658.664,461.308,1661.12,464.221,1661.117z"/>
		<path style="fill:#3A72AA;" d="M596.814,1630.82c-9.779,7.047-27.245,3.539-35.937,0.627
			c-2.528-44.935-16.807-229.285-16.077-233.797c-11.098,68.36-40.039,191.076-48.135,224.933c-1.357,5.683-2.125,8.864-2.125,8.864
			c-12.583,6.381-37.012,0.448-37.012,0.448c-0.173-2.547-0.314-5.677-0.423-9.312c-1.536-52.647,1.361-212.789,14.91-266.646
			c45.46,13.741,131.79,0.975,131.79,0.975C625.048,1484.121,601.205,1583.516,596.814,1630.82z"/>
		<path style="fill:#23659B;" d="M588.711,1626.512l-4.465-0.361c11.608-143.459-3.691-259.231-3.846-260.384l4.439-0.601
			C584.997,1366.323,600.362,1482.546,588.711,1626.512z"/>
		<path style="fill:#23659B;" d="M477.883,1628.814l-4.434-0.643c0.291-2.007,29.211-201.486,38.255-271.845l4.443,0.571
			C507.099,1427.293,478.174,1626.807,477.883,1628.814z"/>
		<path style="fill:#F4D4BE;" d="M469.808,1356.607c0,0-0.352,12.478,24.988,18.688c25.339,6.209,33.282,5.229,42.383,8.17
			c0,0,6.869-4.498,9.971-9.478c0,0,3.482,2.288,7.515,7.844c0,0,17.031,1.319,34.1-7.844c17.069-9.162,16.045-14.441,15.784-17.18
			L469.808,1356.607z"/>
		<path style="fill:#1D3F70;" d="M469.808,1356.607c10.622,14.716,111.656,18.806,134.742,0.2c0,0-12.249-138.882-47.435-164.919
			c0,0-7.723-1.75-7.753-2.273c0.036,0.623,1.179,16.736-21.805-1.271c-1.281,0.401-8.268,1.486-8.268,1.486
			c-34.105,5.716-38.853,38.626-41.64,88.969C475.77,1312.746,469.808,1356.607,469.808,1356.607z"/>
		<path style="fill:#F4D4BE;" d="M519.289,1189.83c-1.028,9.328,22.145,19.871,23.502,20.013l3.687-8.224
			c3.6,1.264,6.353,6.737,6.353,6.737c10.875-8.75,6.663-15.039,4.284-16.469c-2.749-1.652-7.759-2.28-7.753-2.273
			c0.09,0.618-0.901,15.052-21.805-1.271C524.818,1186.744,519.289,1189.83,519.289,1189.83z"/>
		<path style="fill:#23659B;" d="M567.843,1624.859c-2.449-36.462-11.934-177.479-13.523-198.7
			c-1.828-24.407-9.518-28.512-9.518-28.512s16.281,229.854,16.078,233.803c0.204,0.068,0.418,0.137,0.632,0.206
			c0.881,0.292,2.633,0.85,4.885,1.372c9.275,2.255,22.418,3.554,30.416-2.206c0,0,0.311-2.898,0.819-8.239
			C597.632,1622.583,584.559,1628.593,567.843,1624.859z"/>
		<path style="fill:#C16256;" d="M561.784,1134.315c-0.155,0-0.31-0.061-0.426-0.182c-2.398-2.508-5.213-2.134-5.331-2.116
			c-0.327,0.047-0.62-0.176-0.668-0.496c-0.048-0.321,0.172-0.62,0.493-0.669c0.142-0.023,3.523-0.498,6.357,2.467
			c0.225,0.235,0.217,0.608-0.019,0.833C562.078,1134.26,561.931,1134.315,561.784,1134.315z"/>
		<path style="fill:#C16256;" d="M542.8,1139.039c-0.075,0-0.152-0.014-0.225-0.045c-0.301-0.125-0.443-0.469-0.318-0.769
			c0.082-0.197,2.058-4.828,7.684-5.904c0.319-0.063,0.629,0.149,0.69,0.468c0.062,0.32-0.148,0.629-0.468,0.69
			c-4.985,0.954-6.745,5.026-6.817,5.199C543.25,1138.903,543.031,1139.039,542.8,1139.039z"/>
		<path style="fill:#C16256;" d="M561.74,1162.405c-1.326,0-2.451-0.557-2.943-1.589c-0.776-1.63,0.366-3.742,2.6-4.807
			c1.028-0.489,2.135-0.673,3.119-0.517c1.063,0.17,1.862,0.712,2.251,1.527c0.388,0.815,0.305,1.777-0.233,2.71
			c-0.497,0.862-1.338,1.606-2.367,2.097l0,0C563.347,1162.218,562.51,1162.405,561.74,1162.405z M563.915,1161.295h0.007H563.915z
			 M563.808,1156.617c-0.613,0-1.272,0.157-1.904,0.458c-1.583,0.754-2.518,2.236-2.042,3.236c0.475,0.999,2.216,1.207,3.799,0.452
			c0.816-0.388,1.473-0.964,1.852-1.621c0.338-0.587,0.406-1.16,0.189-1.614c-0.216-0.454-0.703-0.763-1.372-0.869
			C564.161,1156.63,563.987,1156.617,563.808,1156.617z"/>
		<path style="fill:#F99370;" d="M525.868,1220.421c1.017,81.856,62.825,18.8,73.885-22.049c1.334-4.277,5.865-6.393,10.191-5.215
			c13.547,3.689-4.251,46.03-8.966,55.054c-14.598,30.402-51.689,58.04-84.553,36.043c-21.399-14.856-26.17-43.113-23.421-67.165
			C495.297,1195.617,527.941,1198.914,525.868,1220.421z"/>
		<path style="fill:#1D3F70;" d="M614.92,1206.036c-0.192,2.016-0.48,4.48-0.896,7.277c-3.335,22.407-14.836,66.51-50.446,79.375
			c-40.058,14.471-80.366-11.002-86.255-42.561c-7.514-40.282,20.574-58.727,34.239-58.375c7.911,3.155,13.231,12.557,16.732,24.064
			c3.501,11.501,7.648,39.758,27.655,32.065c15.002-5.76,31.565-29.069,38.919-40.372c2.451-3.77,3.878-6.208,3.878-6.208
			C606.088,1207.771,614.92,1206.036,614.92,1206.036z"/>
		<path style="fill:#EB5648;" d="M691.269,1149.348c1.363,4.137-2.148,8.245-6.446,7.542l0,0l-34.663-5.658l-36.129,11.904
			l7.667,23.258l-7.789,2.637l-7.687-23.322l-11.354,3.744l-4.512,1.485l-9.639-29.242l4.621-1.523l55.182-18.183l24.436-25.089
			l0.073-0.074c3.039-3.12,8.303-1.904,9.667,2.232L691.269,1149.348z"/>
		<path style="fill:#F99370;" d="M622.77,1187.931c0.374-0.067,0.455-0.093,0.645-0.14c0.163-0.042,0.315-0.088,0.464-0.136
			c0.298-0.095,0.581-0.205,0.861-0.326c0.556-0.244,1.094-0.551,1.593-0.925c0.499-0.37,0.956-0.813,1.324-1.302
			c0.382-0.486,0.649-1.013,0.859-1.539c0.621-1.558-0.373-3.242-2.22-3.761c-1.302-0.366-2.679-0.056-3.596,0.705l-1.392,1.16
			c-0.027,0.023,0.029-0.031,0.017-0.023c0,0-0.023,0.02-0.063,0.037l-0.059,0.022c-0.008,0.002-0.012,0.004-0.012,0.004l0.159-0.03
			c-2.049,0.335-3.393,2.006-3.001,3.733C618.741,1187.137,620.72,1188.266,622.77,1187.931z"/>
		<path style="fill:#F99370;" d="M621.587,1182.966c0.286-0.125,0.366-0.168,0.525-0.247l0.394-0.213
			c0.255-0.144,0.497-0.295,0.735-0.457c0.475-0.324,0.934-0.695,1.366-1.129c0.432-0.43,0.831-0.951,1.154-1.527
			c0.328-0.579,0.542-1.243,0.647-1.91c0.241-1.752-1.242-3.309-3.314-3.478c-2.071-0.169-3.946,1.115-4.188,2.867
			c-0.002-0.082,0.062-0.105-0.062,0.025c-0.06,0.059-0.152,0.139-0.271,0.219c-0.059,0.04-0.124,0.081-0.186,0.116l-0.088,0.048
			c-0.005,0.004-0.09,0.041,0.027-0.009c-1.881,0.791-2.677,2.707-1.776,4.28C617.451,1183.124,619.706,1183.757,621.587,1182.966z"
			/>
		<path style="fill:#F99370;" d="M621.283,1176.762l2.48-2.547c1.362-1.399,1.194-3.41-0.376-4.493
			c-1.57-1.083-3.946-0.826-5.308,0.573l-2.48,2.547c-1.362,1.399-1.194,3.41,0.376,4.493
			C617.544,1178.417,619.921,1178.16,621.283,1176.762z"/>
		<path style="fill:#F99370;" d="M618.585,1171.809l2.48-2.547c1.362-1.399,1.194-3.41-0.376-4.493
			c-1.57-1.083-3.946-0.826-5.308,0.573l-2.48,2.546c-1.362,1.399-1.194,3.41,0.376,4.493
			C614.847,1173.465,617.223,1173.208,618.585,1171.809z"/>
		<path style="fill:#F99370;" d="M614.687,1203.488c0,0,9.426-11.476,11.645-17.083c0,0-5.981-24.261-10.132-21.7
			c-4.152,2.561-19.501,15.201-16.534,34.223C599.666,1198.927,609.019,1194.515,614.687,1203.488z"/>
		<path style="fill:#23659B;" d="M496.665,1622.583c-1.357,5.683-2.125,8.864-2.125,8.864c-12.583,6.381-37.012,0.448-37.012,0.448
			c-0.173-2.547-0.314-5.677-0.423-9.312h0.006C457.112,1622.583,477.119,1627.703,496.665,1622.583z"/>
		<path style="fill:#17375E;" d="M537.514,1298.28c-20.643,0-35.014-9.642-43.658-18.115c-10.13-9.931-14.645-20.155-14.833-20.585
			c-0.282-0.648,0.015-1.402,0.663-1.684c0.648-0.282,1.402,0.015,1.685,0.662c0.044,0.102,4.542,10.262,14.344,19.846
			c13.074,12.783,28.893,18.535,46.985,17.112c43.345-3.422,57.993-41.181,58.136-41.562c0.248-0.663,0.987-0.999,1.648-0.749
			c0.662,0.248,0.997,0.986,0.749,1.648c-0.152,0.406-3.837,10.063-13.121,20.284c-8.573,9.438-23.723,21.078-47.21,22.931
			C541.062,1298.21,539.264,1298.28,537.514,1298.28z"/>
		<path style="fill:#17375E;" d="M548.494,1250.4c-0.096,0-0.193-0.001-0.29-0.002c-12.303-0.203-17.23-20.039-17.434-20.883
			c-0.166-0.688,0.257-1.378,0.944-1.545c0.685-0.167,1.379,0.257,1.545,0.944c0.045,0.187,4.659,18.754,14.989,18.924
			c0.078,0.001,0.159,0.002,0.238,0.002c9.861,0,22.799-10.066,36.47-28.391c0.423-0.567,1.226-0.681,1.792-0.26
			c0.567,0.423,0.683,1.225,0.26,1.792C576.971,1234.431,562.173,1250.4,548.494,1250.4z"/>
		<path style="fill:#17375E;" d="M614.92,1206.036c-0.192,2.016-0.48,4.48-0.896,7.277c-13.312,2.24-19.156-5.805-19.156-5.805
			c2.451-3.77,3.878-6.208,3.878-6.208C606.088,1207.771,614.92,1206.036,614.92,1206.036z"/>
		<path style="fill:#17375E;" d="M642.018,1324.97c0,0-6.541,1.203-10.368,13.242c0,0-3.027-1.35-7.904-3.968
			c1.965-10.823,12.205-17.165,12.205-17.165C637.878,1319.76,639.894,1322.391,642.018,1324.97z"/>
		<path style="fill:#D64343;" d="M684.823,1156.89L684.823,1156.89l-19.866-59.989l0.073-0.074c3.039-3.12,8.303-1.904,9.667,2.232
			l16.573,50.288C692.632,1153.484,689.121,1157.592,684.823,1156.89z"/>
		<polygon style="fill:#D64343;" points="594.869,1169.453 590.357,1170.938 580.718,1141.696 585.339,1140.173 		"/>
		<path style="fill:#D64343;" d="M599.288,1151.897c0,1.437-1.165,2.602-2.602,2.602s-2.602-1.165-2.602-2.602
			c0-1.437,1.165-2.603,2.602-2.603S599.288,1150.46,599.288,1151.897z"/>
		<path style="fill:#D64343;" d="M606.935,1149.295c0,1.437-1.165,2.603-2.602,2.603c-1.437,0-2.602-1.165-2.602-2.603
			s1.165-2.602,2.602-2.602C605.77,1146.692,606.935,1147.858,606.935,1149.295z"/>
		<path style="fill:#D64343;" d="M614.582,1146.692c0,1.437-1.165,2.602-2.602,2.602c-1.437,0-2.602-1.165-2.602-2.602
			s1.165-2.603,2.602-2.603C613.417,1144.09,614.582,1145.255,614.582,1146.692z"/>
	</g>
	<g id="_x34_">
		<path style="fill:#F99370;" d="M950.587,728.634c12.451-55.414,32.682-115.198,78.971-151.379c6.27-4.809,14.538,4.088,9.31,9.961
			c-4.144,4.897-7.77,10.177-10.987,15.69c-9.485,16.597-15.15,34.985-18.998,53.728c-4.885,24.813-7.044,50.468-5.978,75.736
			C1007.765,776.838,940.509,772.518,950.587,728.634z"/>
		<path style="fill:#F99370;" d="M861.045,1148.417l-44.49-33.873c12.217-15.043,31.817-36.163,46.096-50.305l22.132,17.955
			l-32.609,25.637c-3.43,3.498-4.4,8.215-1.622,12.25c5.792,9.512,17.228,15.385,16.424,26.224
			C866.438,1148.966,863.204,1150.06,861.045,1148.417z"/>
		<path style="fill:#3A72AA;" d="M818.447,1109.279c-0.955,1.628-2.099,3.679-2.346,5.555l44.968,33.601
			c2.164,1.648,5.353,0.71,6.19-1.878c1.943-6.059,1.642-16.919-18.059-33.614c0,0-8.857-3.77-18.752-14.585
			C830.447,1098.358,822.31,1102.673,818.447,1109.279z"/>
		<path style="fill:#E8C0A6;" d="M855.35,1135.007c0.355,0.266,0.851,0.308,1.257,0.067c4.695-2.783,8.573-1.775,8.736-1.731
			c5.073-1.846-3.592-4.382-9.893-0.219C854.761,1133.513,854.709,1134.548,855.35,1135.007z"/>
		<path style="fill:#E8C0A6;" d="M848.985,1128.825c0.384,0.287,0.926,0.308,1.337,0.015c4.991-3.563,10.688-2.625,10.746-2.616
			c5.11-2.733-5.807-3.993-12.062,0.771C848.384,1127.422,848.376,1128.384,848.985,1128.825z"/>
		<path style="fill:#E8C0A6;" d="M841.756,1121.774c0.372,0.278,0.894,0.308,1.304,0.036c5.37-3.558,11.266-3.233,11.324-3.228
			c4.747-3.299-6.041-3.178-12.575,1.339C841.159,1120.334,841.136,1121.325,841.756,1121.774z"/>
		<path style="fill:#23659B;" d="M867.288,1146.464l-48.841-37.185c-0.955,1.628-1.646,3.39-1.893,5.265l44.514,33.891
			C863.261,1150.109,866.506,1149.109,867.288,1146.464z"/>
		<path style="fill:#F99370;" d="M1035.633,769.68c82.708-17.793,129.717-70.508,95.409-155.185
			c-5.186-10.053-16.194-7.427-14.562,3.325c10.717,70.604-21.729,94.918-85.736,97.704c-0.004-0.01-0.158-0.006,0.036-0.035
			C995.349,718.825,1000.195,772.698,1035.633,769.68z"/>
		<path style="fill:#F99370;" d="M1031.228,1158.344l-55.103,0.073c-2.044-13.622,9.979-58.095,13.328-70.645l29.913,6.249
			l-15.093,36.087c0,0-6.976,9.506,2.235,12.08c10.219,3.475,21.146,2.252,28.094,9.442
			C1036.667,1154.397,1034.679,1158.339,1031.228,1158.344z"/>
		<path style="fill:#3A72AA;" d="M974.434,1153.084c0.228,1.873,0.748,3.693,1.69,5.333l55.947-0.074
			c2.72-0.004,4.686-2.684,3.78-5.249c-2.132-5.995-8.311-14.689-34.101-16.004c0,0-9.978,2.623-24.406,0.031
			C977.346,1137.121,973.496,1145.49,974.434,1153.084z"/>
		<path style="fill:#E8C0A6;" d="M1019.366,1151.141c0.448,0,0.872-0.268,1.051-0.71c2.044-5.06,5.739-6.614,5.896-6.676
			c2.912-4.549-5.513-1.304-7.998,5.829C1018.005,1150.306,1018.583,1151.156,1019.366,1151.141z"/>
		<path style="fill:#E8C0A6;" d="M1010.556,1150.089c0.484,0,0.933-0.313,1.083-0.8c1.795-5.826,6.905-8.576,6.957-8.602
			c2.388-5.274-7.038,0.357-9.122,7.934C1009.24,1149.335,1009.81,1150.1,1010.556,1150.089z"/>
		<path style="fill:#E8C0A6;" d="M1000.531,1148.87c0.469,0,0.909-0.294,1.071-0.762c2.108-6.086,6.992-9.404,7.042-9.437
			c1.229-0.795-0.041-2.719-1.255-1.889c-0.226,0.15-5.561,3.75-7.93,10.583C999.197,1148.083,999.77,1148.883,1000.531,1148.87z"/>
		<path style="fill:#23659B;" d="M1035.819,1153.002l-61.385,0.082c0.228,1.873,0.748,3.693,1.69,5.333l55.947-0.074
			C1034.83,1158.343,1036.803,1155.579,1035.819,1153.002z"/>
		<path style="fill:#FCB4B4;" d="M1036.439,872.439l-117.627-17.906c25.43-180.119,110.519-186.754,124.329-84.957
			C1047.224,795.416,1040.28,857.406,1036.439,872.439z"/>
		<path style="fill:#F49F9F;" d="M1042.288,830.474c1.479-30.9-12.274-59.215-12.274-59.215l13.046-2.265
			C1045.864,790.407,1044.153,811.751,1042.288,830.474z"/>
		<path style="fill:#FCB4B4;" d="M1034.138,593.559c0,0-1.378,2.194-3.253,5.574c-4.12,7.359-10.663,20.319-10.663,28.138
			c0,11.39-27.513-14.49-27.513-14.49s8.725-12.589,23.291-24.681c1.811-1.505,3.724-3.01,5.714-4.477
			C1021.714,583.622,1025.579,591.773,1034.138,593.559z"/>
		<path style="fill:#FCB4B4;" d="M1144.138,689.005c-6.186,34.694-36.775,61.002-65.459,71.786
			c-27.854,10.472-48.661,10.472-48.661,10.472s-20.383-57.041,2.742-58.674c23.125-1.632,54.005-9.439,69.987-28.329
			c11.811-13.954,14.031-40.944,14.375-54.081c0.128-4.643,0.026-7.551,0.026-7.551c8.508,2.857,16.224-2.079,16.224-2.079
			s1.097,2.181,2.615,5.995C1140.49,637.755,1148.755,663.112,1144.138,689.005z"/>
		<path style="fill:#3A72AA;" d="M833.196,1083.583c0,0,7.872,14.376,20.249,20.46c3.319,1.635,6.963,2.669,10.866,2.669
			c3.453-1.626,6.81-3.329,10.072-5.098c76.501-41.446,100.118-119.812,105.168-193.004c0.229-3.271,36.759,89.204-1.129,213.301
			c0,0,13.668,11.143,32.512,7.432c23.014-44.239,76.004-150.803,30.78-291.754c-14.912-5.815-100.567-14.07-118.531-5.347
			c0,0-16.586,33.124-13.793,82.03c4.831,84.699-46.237,141.783-67.328,161.583C836.639,1080.953,833.196,1083.583,833.196,1083.583
			z"/>
		<path style="fill:#23659B;" d="M1015.803,1119.86c-3.219,6.226-4.865,9.494-4.865,9.494c-18.855,3.703-32.528-7.436-32.528-7.436
			c0.879-3.11,2.025-6.614,2.83-9.659C981.24,1112.26,994.435,1124.152,1015.803,1119.86z"/>
		<path style="fill:#23659B;" d="M923.406,827.005c0,0,49.057-15.481,118.657,7.342c0,0,2.904,5.023,1.592,9.101
			c0,0-74.507-15.336-123.393-4.803C920.261,838.645,919.786,832.612,923.406,827.005z"/>
		<path style="fill:#8E4A35;" d="M1013.227,608.451c-15.188-3.08-37.56,4.125-44.817,32.691
			c-5.877,23.135-28.678,19.44-45.693,47.212c-17.788,29.032-3.495,55.147,22.163,70.147
			c47.274,28.355,123.951-23.136,99.741-79.274C1034.385,654.939,1039.294,613.736,1013.227,608.451z"/>
		<path style="fill:#1D3F70;" d="M761.061,1661.117c4.22,0,8.134-2.527,9.472-6.479l19.766-58.442h115.48
			c0,0-17.881,52.869-17.881,52.869c-4.074,11.479,15.24,16.972,18.95,5.574c59.331-175.429,124.901-369.288,183.923-543.81
			c4.092-11.52-15.299-16.937-18.95-5.574l-17.811,52.662H938.53c0,0,15.926-47.089,15.926-47.088
			c4.085-11.485-15.291-16.985-18.95-5.574c-59.079,174.677-124.658,368.583-183.923,543.811
			C749.485,1654.906,754.492,1661.207,761.061,1661.117z M942.526,1487.546h-115.48l21.605-63.881h115.48L942.526,1487.546z
			 M904.393,1258.85h115.48l-21.605,63.881h-115.48L904.393,1258.85z M992.002,1341.258l-21.605,63.88h-115.48l21.605-63.88H992.002
			z M1047.744,1176.443l-21.605,63.88h-115.48l21.605-63.88H1047.744z M796.565,1577.669l24.214-71.596H936.26l-24.313,71.885
			c-0.777-0.182-1.586-0.289-2.423-0.289H796.565z"/>
		<path style="fill:#F49F9F;" d="M1135.987,626.543c-8.635,5.638-18.852,3.622-18.852,3.622l-0.013,0.013
			c0.128-4.643,0.026-7.551,0.026-7.551c8.508,2.857,16.224-2.079,16.224-2.079S1134.469,622.729,1135.987,626.543z"/>
		<path style="fill:#F49F9F;" d="M1034.138,593.559c0,0-1.378,2.194-3.253,5.574c-9.86,0.051-14.885-11.033-14.885-11.033
			c1.811-1.505,3.724-3.01,5.714-4.477C1021.714,583.622,1025.579,591.773,1034.138,593.559z"/>
		<path style="fill:#23659B;" d="M833.196,1083.583c0,0,12.674,23.128,31.115,23.128c3.453-1.626,6.81-3.329,10.072-5.098
			c0,0-21.445-6.619-32.32-25.759C836.639,1080.953,833.196,1083.583,833.196,1083.583z"/>
		<path style="fill:#23659B;" d="M853.445,1104.043c3.319,1.635,6.963,2.669,10.866,2.669c3.453-1.626,6.81-3.329,10.072-5.098
			c76.501-41.446,100.118-119.812,105.168-193.004c0,0-9.144,52.866-26.247,91.94c-17.093,39.073-53.459,76.693-92.418,98.425
			C857.787,1100.705,855.339,1102.398,853.445,1104.043z"/>
		<path style="fill:#F99370;" d="M1054.952,576.692c-1.732-2.397-6.678,2.581-9.374,2.643c1.363-4.551,4.053-8.742,4.043-8.773
			c4.023-4.293,8.271-8.361,12.705-12.238c2.828-8.488-13.827,6.66-15.731,7.846c-0.023-0.018-0.047-0.036-0.07-0.054
			c3.183-5.277,6.661-10.389,10.546-15.175c0.974-9.355-13.47,11.17-14.998,12.934c-0.014-0.004-0.028-0.008-0.042-0.012
			c2.153-5.47,4.977-10.68,8.318-15.522c0.144-9.513-12.912,12.474-13.798,14.667c-0.023-0.001-0.046-0.002-0.07-0.003
			c1.066-4.543,2.711-8.949,4.567-13.235c-1.137-8.881-9.727,11.747-10.321,13.843c-1.134,1.239-4.138,9.336-5.521,19.759
			c-0.453,3.416,8.481,7.031,11.625,5.779c2.947-1.174,6.392-3.792,7.663-4.702C1047.258,583.076,1055.559,580.198,1054.952,576.692
			z"/>
		<path style="fill:#F99370;" d="M1106.841,599.247c2.606-1.396,4.873,5.245,7.27,6.481c0.767-4.688,0.185-9.634,0.207-9.657
			c-1.736-5.622-3.774-11.139-6.062-16.566c1.176-8.869,9.514,12.043,10.705,13.943c0.029-0.007,0.058-0.012,0.087-0.018
			c-0.55-6.138-1.438-12.257-2.835-18.261c3.221-8.837,7.218,15.941,7.818,18.196c0.015,0.002,0.029,0.005,0.043,0.007
			c0.46-5.861,0.203-11.781-0.679-17.598c4.037-8.615,6.144,16.869,5.98,19.228c0.021,0.01,0.043,0.019,0.064,0.028
			c1.031-4.551,1.482-9.232,1.691-13.898c4.912-7.486,3.599,14.821,3.216,16.965c0.476,1.611-0.369,10.206-3.69,20.181
			c-1.088,3.269-10.703,2.606-12.981,0.104c-2.136-2.346-4.086-6.208-4.829-7.583
			C1110.961,608.356,1104.76,602.133,1106.841,599.247z"/>
	</g>
	<g id="_x33_">
		<path style="fill:#D1A68F;" d="M1942.233,1247.512c-52.532,40.1-118.296,31.14-155.566,3.246l-1.944-19.061
			c85.964,6.661,106.07-39.909,160.997-59.163l-4.783,17.374C1940.938,1189.909,1942.819,1246.228,1942.233,1247.512z"/>
		<path style="fill:#3A72AA;" d="M1892.235,1158.896v465.619c0,15.175-12.299,27.474-27.474,27.474h-465.628
			c-15.166,0-27.474-12.299-27.474-27.474v-152.608c-106.081-2.811-105.412-157.913,0-160.402
			c4.164-220.958-40.145-175.689,180.082-180.082c3.515,106.494,157.375,105.492,160.411,0h152.609
			C1880.065,1131.404,1892.28,1143.959,1892.235,1158.896z"/>
		<path style="fill:#F99370;" d="M2037.454,1657.228l0.914-0.477c0,0.64,0.791,2.861,1.43,2.861l27.017,0.556
			c0.639,0,1.033-1.204,1.033-1.844l2.304-0.659c0-4.046-0.333-5.512-2.12-8.643c-6.568-8.73,1.273-47.773,1.046-57.973
			c1.62-2.789-28.45-0.601-28.87-1.26c-0.676,0.001-1.208,0.577-1.154,1.25l3.539,44.612
			C2044.18,1644.123,2037.68,1649.243,2037.454,1657.228z"/>
		<path style="fill:#F99370;" d="M1903.826,1661.116h53.814c4.698-0.189,4.662-4.98,3.796-8.695
			c-2.963-13.392,2.275-44.143,3.245-57.916c0.259-2.522-1.721-4.714-4.256-4.714c-39.709-0.403-26.188-5.89-23.851,36.992
			c1.189,21.82-15.325,20.074-25.5,21.728C1904.375,1648.995,1893.172,1658.139,1903.826,1661.116z"/>
		<path style="fill:#103663;" d="M1963.485,1655.533c-0.145,2.639-1.453,5.648-4.51,5.583c0,0-55.82,0-55.82,0
			c-13.166-4.883,5.749-22.348,31.521-22.244c11.808,3.24,25.877,0.997,25.877,0.997S1964.354,1644.708,1963.485,1655.533z"/>
		<path style="fill:#103663;" d="M2065.872,1661.116h-23.858c-11.627-1.587-3.319-22.221,11.929-22.849
			C2069.272,1637.636,2077.49,1659.55,2065.872,1661.116z"/>
		<path style="fill:#E8C0A6;" d="M1916.462,1653.562c-0.468,0-0.912-0.279-1.099-0.741c-2.146-5.293-6.013-6.913-6.177-6.979
			c-3.016-4.761,5.75-1.37,8.375,6.089C1917.887,1652.688,1917.282,1653.577,1916.462,1653.562z"/>
		<path style="fill:#E8C0A6;" d="M1925.679,1652.45c-0.507,0-0.975-0.327-1.133-0.836c-1.896-6.13-7.234-8.963-7.288-8.991
			c-2.736-5.532,7.456,0.391,9.554,8.29C1927.057,1651.659,1926.461,1652.462,1925.679,1652.45z"/>
		<path style="fill:#E8C0A6;" d="M1936.169,1651.16c-0.491,0-0.95-0.307-1.121-0.797c-2.215-6.366-7.329-9.833-7.381-9.867
			C1924.641,1632.323,1941.344,1648.975,1936.169,1651.16z"/>
		<path style="fill:#E8C0A6;" d="M2062.496,1645.927c-6.627-4.02-16.793-0.397-16.832-0.106c-6.92-1.491,9.444-7.333,17.432-2.104
			C2064.137,1644.281,2063.66,1645.971,2062.496,1645.927z"/>
		<path style="fill:#0F2E54;" d="M1899.249,1655.533h64.236c-0.236,1.961-0.778,3.865-1.761,5.583h-58.569
			C1900.271,1661.121,1898.225,1658.229,1899.249,1655.533z"/>
		<path style="fill:#0F2E54;" d="M2065.872,1661.116h-23.858c-3.036,0.003-5.478-2.554-5.291-5.583h34.44
			C2071.347,1658.562,2068.907,1661.12,2065.872,1661.116z"/>
		<path style="fill:#9358E0;" d="M1929.787,1625.405c20.249,7.593,42.695,1.803,42.695,1.803c-0.285-2.739-0.542-5.518-0.773-8.338
			c-7.647-94.753,17.951-228.296,20.582-238.018c0-0.007,0.007-0.013,0.007-0.013c0.122-0.468,0.197-0.644,0.203-0.495
			c16.805,109.809,33.455,200.868,41.265,243.38c19.951,9.328,40.194-4.02,40.194-4.02c0.122-3.837,0.224-7.606,0.312-11.349
			c4.603-73.778-5.925-300.176-44.038-344.383c-44.214,21.931-105.003,25.354-105.003,25.354
			C1915.063,1482.323,1915.558,1574.568,1929.787,1625.405z"/>
		<path style="fill:#F99370;" d="M1952.148,1170.143c-2.52-13.326-8.639-37.299,1.384-43.209c7.058-3.866,17.008,1.024,16.125,9.861
			c-0.752-0.313,1.132,24.142,3.761,30.576C1994.2,1169.972,1937.991,1199.513,1952.148,1170.143z"/>
		<path style="fill:#E57D61;" d="M1969.674,1135.665c0.01,0.375,0.008,0.758-0.017,1.13c-0.545-0.242,0.323,13.28,1.936,22.928
			c-8.37,5.649-18.529,5.435-20.443,5.367c-2.723-14.179-7.212-31.643,2.383-38.156
			C1960.099,1122.716,1969.62,1127.743,1969.674,1135.665z"/>
		<path style="fill:#7640CC;" d="M1943.301,1621.574c-24.995-116.599,0.433-269.66,4.252-270.782
			C1949.51,1351.706,1927.297,1505.529,1943.301,1621.574z"/>
		<path style="fill:#7640CC;" d="M2053.107,1619.692l-1.76-0.785c-19.511-124.077-40.898-272.606-38.19-274.724
			C2016.091,1344.594,2039.034,1492.695,2053.107,1619.692z"/>
		<path style="fill:#E8C0A6;" d="M2054.379,1328.536c-29.431,22.268-101.552,29.206-130.94,18.568
			c-9.906-4.195-11.292-37.56-10.142-70.328c1.761-43.679,12.266-75.051,32.424-104.24c0.248-0.101,4.22-2.008,6.417-2.38
			c-0.097,3.99,0.814,15.523,21.274-2.783c0.091,0.079,7.712,0.331,7.712,0.331c30.955,15.467,44.201,48.349,53.862,85.819
			C2049.806,1311.006,2060.216,1319.859,2054.379,1328.536z"/>
		<path style="fill:#7640CC;" d="M1963.514,1617.697l8.196,1.173c-7.647-94.753,17.951-228.296,20.582-238.018
			c-1.6,3.919-12.04,30.676-19.809,80.408C1964.05,1515.263,1961.419,1590.316,1963.514,1617.697z"/>
		<path style="fill:#D1A68F;" d="M1981.124,1167.703c-6.735,11.486-36.63,29.465-35.404,4.832c0.251-0.117,2.997-1.95,6.416-2.381
			c-0.046,0.647-1.217,17.589,21.279-2.786C1973.391,1167.539,1976.904,1166.328,1981.124,1167.703z"/>
		<path style="fill:#7640CC;" d="M1972.481,1627.206c0,0-22.446,5.792-42.695-1.803l-2.641-10.643c0,0,25.324,8.795,44.153-0.93
			C1971.659,1618.315,1972.053,1622.777,1972.481,1627.206z"/>
		<path style="fill:#7640CC;" d="M2074.274,1608.354c-0.09,3.741-0.192,7.516-0.316,11.347c0,0-20.238,13.353-40.194,4.023
			c0,0-0.654-3.493-1.825-9.893C2031.939,1613.83,2053.428,1620.242,2074.274,1608.354z"/>
		<path style="fill:#163260;" d="M1932.697,1117.856c0,0,0.786-11.333,4.735-18.97l6.322,3.518L1932.697,1117.856z"/>
		<path style="fill:#F99370;" d="M1930.783,1151.036c9.6,10.39,25.397,12.704,37.187,6.756l0.004,0
			c0.878-0.484,1.714-1.02,2.516-1.617l0.011,0.002c38.106-34.564-7.966-96.79-33.116-45.89
			C1929.037,1124.555,1915.423,1131.726,1930.783,1151.036z"/>
		<path style="fill:#C16256;" d="M1947.919,1122.296c-0.327-0.733,0.003-1.591,0.737-1.917c0.734-0.326,1.593,0.004,1.92,0.736
			c0.327,0.733-0.003,1.592-0.737,1.918C1949.105,1123.359,1948.245,1123.029,1947.919,1122.296z"/>
		<path style="fill:#C16256;" d="M1935.813,1119.619c-0.327-0.733,0.003-1.592,0.737-1.918c0.734-0.326,1.594,0.004,1.92,0.737
			c0.327,0.733-0.003,1.591-0.737,1.918C1937,1120.681,1936.14,1120.352,1935.813,1119.619z"/>
		<path style="fill:#C16256;" d="M1938.948,1132.379c0.846,0.145,1.717,0.143,2.463-0.054c0.294-0.077,0.469-0.379,0.391-0.671
			c-0.077-0.296-0.383-0.466-0.672-0.391c-1.872,0.494-4.434-0.562-4.749-1.414c-0.11-0.3,0.299-0.57,0.662-0.742
			c3.202-1.525,5.595-7.309,5.695-7.554c0.115-0.281-0.019-0.602-0.301-0.717c-0.291-0.12-0.603,0.021-0.718,0.301
			c-0.023,0.056-2.331,5.634-5.149,6.977c-1.536,0.732-1.366,1.723-1.222,2.115
			C1935.724,1131.25,1937.29,1132.094,1938.948,1132.379z"/>
		<path style="fill:#E57D61;" d="M1939.254,1106.776c8.091-3.74,22.175,0.783,29.189,1.093c0,0-2.115,11.911,9.543,21.082
			c0.449,11.077,2.012,15.984-10.016,28.841l0.004,0c0.878-0.484,1.714-1.02,2.516-1.617l0.011,0.002
			C2007.179,1123.238,1964.86,1061.544,1939.254,1106.776z"/>
		<path style="fill:#163260;" d="M1934.545,1082.576c4.985-8.675,18.644-12.821,29.644-1.201
			c8.469,8.947,18.096,9.382,17.435,18.305c17.455,9.049,7.556,28.275,7.556,28.275l-8.905-1.528
			c-9.805-8.816-8.859-20.974-8.859-20.974l0.002-0.002c-2.289-0.007-4.687-0.23-6.787-0.885
			c-6.508-2.029-16.224-3.353-23.804-1.003C1933.246,1105.912,1928.974,1092.271,1934.545,1082.576z"/>
		<path style="fill:#F99370;" d="M1990.079,1135.243c-1.208,4.55-5.16,7.451-8.826,6.478c-3.666-0.973-5.658-5.45-4.449-10
			c1.209-4.551,5.16-7.451,8.826-6.478C1989.296,1126.215,1991.288,1130.693,1990.079,1135.243z"/>
		<path style="fill:#C16256;" d="M1981.599,1128.69c0.146-0.048,3.612-1.182,5.43,0.685c0.464,0.475,0.756,1.1,0.9,1.854
			c0,0.002,0,0.003,0.001,0.005c0.013,0.07,0.034,0.134,0.045,0.207c0,0.001,0.001,0.002,0.001,0.003c0,0.001,0,0.001,0,0.001
			c0.203,1.4-0.104,3.24-0.926,5.51c-0.093,0.253-0.353,0.399-0.611,0.354c-0.031-0.005-0.062-0.014-0.095-0.025
			c-0.285-0.103-0.434-0.42-0.331-0.705c0.667-1.84,0.964-3.349,0.91-4.504c-3.197,0.401-4.97,3.865-4.988,3.903
			c-0.11,0.224-0.353,0.341-0.588,0.301c-0.05-0.009-0.099-0.026-0.148-0.049c-0.274-0.132-0.386-0.461-0.254-0.735
			c0.086-0.173,2.02-4.046,5.774-4.539c-0.115-0.318-0.266-0.597-0.476-0.812c-1.336-1.373-4.268-0.419-4.295-0.41
			c-0.292,0.095-0.599-0.062-0.697-0.349C1981.156,1129.097,1981.312,1128.787,1981.599,1128.69z"/>
		<path style="fill:#C16256;" d="M1955.487,1120.667c0.116,0.019,0.237,0.007,0.354-0.041c0.329-0.137,0.485-0.514,0.349-0.843
			c-0.083-0.201-2.104-4.935-8.003-6.267c-0.345-0.079-0.694,0.139-0.773,0.488c-0.079,0.348,0.14,0.694,0.488,0.772
			c5.226,1.18,7.02,5.326,7.094,5.502C1955.085,1120.492,1955.275,1120.632,1955.487,1120.667z"/>
		<path style="fill:#C16256;" d="M1935.576,1115.038c0.197,0.033,0.408-0.026,0.561-0.178c1.755-1.736,5.277-1.385,5.312-1.381
			c0.354,0.038,0.673-0.219,0.711-0.573c0.038-0.355-0.218-0.675-0.573-0.711c-0.169-0.018-4.164-0.424-6.359,1.747
			c-0.254,0.251-0.256,0.66-0.005,0.914C1935.323,1114.956,1935.447,1115.017,1935.576,1115.038z"/>
		<path style="fill:#D1A68F;" d="M1981.124,1167.703c0,0,54.048-1.075,49.062,78c-2.928,46.44-43.424,109.825-140.546,73.921
			c0,0,3.692-5.392,1.831-13.16c0,0,48.381-17.228,60.897-29.837c13.846-13.948,12.297-50.637,16.257-70.592
			C1973.551,1181.217,1981.124,1167.703,1981.124,1167.703z"/>
		<path style="fill:#F99370;" d="M1873.367,1293.252c-1.581,2.732,4.698,5.42,5.711,8.116c-4.835,0.224-9.774-0.948-9.8-0.928
			c-5.488-2.419-10.835-5.13-16.062-8.083c-8.94,0.398,10.963,10.897,12.864,12.469c-0.01,0.028-0.019,0.057-0.029,0.085
			c-6.149-1.279-12.24-2.898-18.154-5.018c-9.31,2.222,15.28,9.173,17.506,10.051c0.001,0.015,0.002,0.03,0.002,0.045
			c-5.987-0.226-11.95-1.183-17.734-2.76c-8.849,3.302,16.134,8.081,18.766,8.314c0.007,0.023,0.014,0.045,0.021,0.068
			c-4.727,0.507-9.519,0.411-14.266,0.072c-7.902,4.226,14.426,5.32,16.797,5.252c1.575,0.671,10.374,0.829,20.861-1.354
			c3.436-0.716,3.889-10.518,1.622-13.116C1887.527,1303.709,1875.935,1290.704,1873.367,1293.252z"/>
		<path style="fill:#F9F8F3;" d="M1937.559,1138.771l12.384-6.328C1951.073,1139.96,1943.236,1144.764,1937.559,1138.771z"/>
		<path style="fill:#C16256;" d="M1937.455,1139.302c0.387,0.177,12.38-6.325,12.733-6.377c0.266-0.136,0.371-0.462,0.235-0.728
			c0.053-1.341-12.816,6.235-13.112,6.091C1936.857,1138.5,1936.966,1139.227,1937.455,1139.302z"/>
	</g>
	<g id="_x32__6_">
		<path style="fill:#662948;" d="M1607.087,240.367c0,0,8.471-15.917,33.681-10.901c25.21,5.015,30.807,37.141,39.215,51.831
			c17.811,31.117,22.878,64.024,13.262,79.695c-10.68,17.404-33.744,10.288-67.505,6.76c-36.028-3.764-50.78-35.239-27.854-78.024
			L1607.087,240.367z"/>
		<path style="fill:#3A72AA;" d="M1616.722,314.91c-10.045,14.372-17.16,84.932-17.428,90.419
			c-11.612-0.991-39.511-3.373-51.407-4.389c-3.068-25.894,31.818-78.529,63.16-84.454c0-0.009,0-0.009,0-0.009
			C1614.581,315.322,1616.722,314.91,1616.722,314.91z"/>
		<path style="fill:#F99370;" d="M1465.775,702.632l50.241,0.021c-0.037-8.031-1.991-24.266-0.293-33.41
			c-0.002,0-21.717,2.55-21.717,2.55c0.551,4.408,1.777,13.968-5.554,16.169c-9.498,2.852-19.791,1.824-25.781,9.039
			C1461.109,699.431,1462.887,702.631,1465.775,702.632z"/>
		<path style="fill:#1D3F70;" d="M1517.488,697.816c-0.206,1.699-0.676,3.349-1.528,4.837l-50.73-0.022
			c-2.467-0.001-4.251-2.43-3.432-4.756c1.929-5.437,8.269-13.308,31.654-14.521c0,0,8.544,1.46,21.625-0.903
			C1515.076,682.452,1518.333,690.929,1517.488,697.816z"/>
		<path style="fill:#E8C0A6;" d="M1476.788,696.091c-0.401-0.005-0.78-0.247-0.941-0.642c-1.857-4.587-5.21-5.992-5.351-6.049
			c-2.645-4.123,4.999-1.187,7.256,5.278C1478.038,695.339,1477.502,696.113,1476.788,696.091z"/>
		<path style="fill:#E8C0A6;" d="M1484.776,695.131c-0.435-0.005-0.835-0.288-0.97-0.724c-1.642-5.312-6.266-7.769-6.313-7.793
			c-2.4-4.794,6.475,0.34,8.276,7.186C1485.983,694.45,1485.457,695.148,1484.776,695.131z"/>
		<path style="fill:#E8C0A6;" d="M1493.864,694.017c-0.421-0.005-0.813-0.271-0.959-0.69c-1.916-5.517-6.347-8.522-6.392-8.552
			c-1.847-5.023,6.212,1.07,8.333,7.877C1495.09,693.307,1494.559,694.037,1493.864,694.017z"/>
		<path style="fill:#395B96;" d="M1461.884,697.793l55.661,0.024c-0.206,1.699-0.676,3.349-1.528,4.837l-50.73-0.022
			C1462.785,702.635,1460.994,700.13,1461.884,697.793z"/>
		<path style="fill:#EB5648;" d="M1627.105,512.66c-24.713-1.321-67.63-15.429-86.567,15.814
			c-20.731,34.122-16.583,107.06-14.927,142.303c-27.243,8.431-41.736-0.476-41.736-0.476
			c-10.741-72.23-46.952-236.887,80.133-212.649c-0.003-0.005,85.4,0.969,85.4,0.969
			C1663.361,487.901,1650.307,512.438,1627.105,512.66z"/>
		<path style="fill:#F99370;" d="M1526.014,703.316l50.241,0.021c-0.037-8.031-1.991-24.266-0.293-33.41
			c-0.002,0-21.716,2.553-21.716,2.553c0.551,4.408,1.947,13.97-5.554,16.166c-9.517,2.787-19.791,1.824-25.781,9.039
			C1521.349,700.115,1523.126,703.315,1526.014,703.316z"/>
		<path style="fill:#1D3F70;" d="M1577.784,698.501c-0.206,1.699-0.676,3.349-1.528,4.837l-50.73-0.022
			c-2.467-0.001-4.251-2.429-3.432-4.756c1.929-5.437,8.347-13.445,31.731-14.658c0,0,8.416,1.796,21.496-0.566
			C1575.321,683.337,1578.628,691.614,1577.784,698.501z"/>
		<path style="fill:#E8C0A6;" d="M1537.028,696.775c-0.401-0.005-0.781-0.246-0.941-0.642c-1.857-4.587-5.21-5.992-5.351-6.049
			c-2.645-4.123,4.999-1.186,7.256,5.278C1538.277,696.022,1537.742,696.797,1537.028,696.775z"/>
		<path style="fill:#E8C0A6;" d="M1545.015,695.815c-0.435-0.005-0.835-0.288-0.97-0.724c-1.641-5.312-6.266-7.769-6.313-7.793
			c-2.4-4.793,6.475,0.339,8.276,7.186C1546.223,695.134,1545.697,695.832,1545.015,695.815z"/>
		<path style="fill:#E8C0A6;" d="M1554.104,694.701c-0.422-0.005-0.813-0.27-0.959-0.691c-1.916-5.517-6.348-8.522-6.392-8.552
			c-1.847-5.023,6.212,1.07,8.333,7.877C1555.329,693.991,1554.798,694.721,1554.104,694.701z"/>
		<path style="fill:#395B96;" d="M1522.123,698.477l55.661,0.023c-0.206,1.699-0.676,3.349-1.528,4.837l-50.73-0.022
			C1523.025,703.319,1521.234,700.814,1522.123,698.477z"/>
		<path style="fill:#CE3932;" d="M1570.96,457.727l-7.912,53.161c-32.075,12.212-34.756,45.784-38.101,83.573
			C1510.826,535.858,1512.783,476.805,1570.96,457.727z"/>
		<path style="fill:#EB5648;" d="M1666.952,518.149c-27.317,13.312-59.397-4.695-78.014,31.835
			c-15.053,31.998-7.519,93.56-3.803,121.472c-27.243,8.431-41.736-0.476-41.736-0.476
			c-15.385-62.377-50.546-207.332,53.545-212.955c28.491-0.582,65.914,0.094,91.104-1.136
			C1688.047,456.89,1700.73,501.689,1666.952,518.149z"/>
		<path style="fill:#23659B;" d="M1572.363,383.335c-0.497-0.003-0.893-0.441-0.841-0.937c1.861-14.093,17.02-32.217,18.975-31.218
			c1.32,1.74-16.095,16.697-17.274,31.383C1573.179,383.009,1572.802,383.34,1572.363,383.335z"/>
		<path style="fill:#3A72AA;" d="M1688.719,442.185c2.027,15.777,0.848,22.423,0.848,22.423
			c-42.005,4.736-68.456,4.679-119.449-3.038c33.358-96.25-39.958-34.954,46.603-146.66c0.204,0.019,20.901,2.131,21.089,2.146
			C1661.582,335.362,1676.754,359.447,1688.719,442.185z"/>
		<polygon style="fill:#163260;" points="1482.067,462.24 1595.097,463.529 1573.537,380.421 1461.19,379.14 		"/>
		
			<rect x="1535.741" y="408.769" transform="matrix(0.0114 -0.9999 0.9999 0.0114 1055.7697 1998.4413)" style="fill:#234270;" width="5.627" height="113.038"/>
		<polygon style="fill:#0B274F;" points="1571.838,380.401 1575.882,380.448 1596.984,463.14 1650.625,463.752 1650.561,469.378 
			1593.155,468.723 1593.213,463.691 		"/>
		<path style="fill:#F99370;" d="M1674.794,333.525c25.833,19.826,39.349,55.13,32.103,87.01
			c-2.841,17.922-14.364,34.867-32.141,39.747c-8.788,3.399-49.661,8.561-47.595-5.904c0.687-3.468,3.783-4.713,6.78-5.607
			c4.94-1.678,10.032-3.538,14.748-5.617c8.45-4.265,19.298-8.227,21.234-17.639c4.145-21.979-4.633-43.615-20.927-58.18
			c0.029,0.018-0.077-0.067,0.164,0.113C1627.047,350.582,1652.545,316.865,1674.794,333.525z"/>
		<path style="fill:#3A72AA;" d="M1689.011,456.509c-13.334,5.772-25.92,7.447-35.582,7.686c0,0,2.394-14.388-7.953-20.444
			c59.181-43.921-24.405-63.643-7.563-128.98C1700.81,316.612,1764.679,412.709,1689.011,456.509z"/>
		<path style="fill:#F99370;" d="M1602.161,463.199c0,0,5.235-17.544,35.263-15.173l6.116,15.645L1602.161,463.199z"/>
		<path style="fill:#23659B;" d="M1660.406,463.788c-4.303,0.43-6.977,0.408-6.977,0.408s2.394-14.388-7.953-20.444
			c0,0,2.582-1.637,5.965-4.555C1651.441,439.196,1662.76,447.708,1660.406,463.788z"/>
		<path style="fill:#23659B;" d="M1650.877,441.653c-0.759,0.009-1.153-1.022-0.542-1.508c26.318-22.919,13.837-47.639-1.479-63.734
			c-0.752-0.79,0.533-1.994,1.268-1.148C1666.416,391.926,1678.608,419.292,1650.877,441.653z"/>
		<path style="fill:#23659B;" d="M1659.844,463.871c-4.839-2.893,13.7-1.266,27.888-7.776c0.439-0.173,0.935,0.04,1.11,0.478
			c0.174,0.439-0.04,0.936-0.479,1.11C1673.712,463.498,1660.033,463.87,1659.844,463.871z"/>
		<path style="fill:#F4D4BE;" d="M1643.426,341.204c-0.653,4.497-4.976,5.852-6.049,5.601c-15.059-6.639-4.528,13.906-10.776,15.915
			c-5.255,1.689-5.8-5.146-10.36-5.572c-6.62-0.618-8.009,2.975-10.311,0.755c-3.205-3.091,4.701-8.334,3.757-13.81
			c-0.662-3.845-8.336-0.076-8.145-7.972c0.208-7.756,9.22-19.277,9.506-19.633c0-0.009,0-0.009,0-0.009
			c8.464-4.364,26.865-1.706,26.865-1.706s2.441-0.509,4.775,0.406C1643.769,321.498,1644.703,334.455,1643.426,341.204z"/>
		<path style="fill:#F99370;" d="M1617.317,307.409l-0.596,7.5c0,0-0.784,7.212-0.937,20.634
			c-0.215,18.869,4.471,16.725,11.085,3.617c3.634-7.202,11.044-24.389,11.044-24.389l1.146-13.19L1617.317,307.409z"/>
		<path style="fill:#E57D61;" d="M1642.706,286.211c-0.09,0.356-0.194,0.715-0.317,1.059c-0.448-0.372-2.893,11.759-3.936,21.27
			c-9.088,5.185-19.8,4.692-21.583,4.12c0.643-14.083,2.068-35.151,12.96-38.956
			C1637.131,271.478,1644.759,278.739,1642.706,286.211z"/>
		<path style="fill:#662948;" d="M1615.882,239.488c-27.223-3.581-32.038,39.401-13.692,55.445L1615.882,239.488z"/>
		<path style="fill:#F99370;" d="M1647.674,270.175c1.208,9.412,1.168,20.434-4.171,28.474l-0.012,0.003
			c-14.61,23.294-61.896,7.63-48.576-20.037c1.951-3.528,3.077-7.832,3.261-11.491
			C1599.043,228.718,1644.251,237.295,1647.674,270.175z"/>
		<path style="fill:#C16256;" d="M1611.751,274.769c-1.284-1.318,0.816-3.304,2.061-1.948
			C1615.095,274.139,1612.995,276.125,1611.751,274.769z"/>
		<path style="fill:#C16256;" d="M1599.75,276.227c-1.284-1.318,0.816-3.304,2.061-1.948
			C1603.095,275.596,1600.995,277.582,1599.75,276.227z"/>
		<path style="fill:#C16256;" d="M1606.767,286.961c-2.402,0.354-5.869-0.307-3.568-3.156c2.156-2.149,2.471-8.034,2.474-8.093
			c0.023-0.689,1.117-0.647,1.073,0.053c-0.013,0.259-0.339,6.359-2.789,8.801c-0.278,0.278-0.567,0.659-0.369,0.9
			c0.563,0.681,3.26,0.824,4.824-0.238c0.24-0.166,0.578-0.103,0.745,0.142C1609.546,286.494,1607.605,286.714,1606.767,286.961z"/>
		<path style="fill:#E57D61;" d="M1647.674,270.175c1.208,9.412,1.168,20.434-4.171,28.474l-0.012,0.003
			c2.49-6.045,1.713-17.693,1.713-17.693l-3.295-4.31c-34.168-0.847-38.899-26.689-38.899-26.689
			C1617.788,229.519,1646.138,248.496,1647.674,270.175z"/>
		<path style="fill:#662948;" d="M1605.666,246.752c0,0,4.792,25.445,35.704,27.334l8.384-8.492
			C1653.859,243.538,1627.849,220.612,1605.666,246.752z"/>
		<path style="fill:#F99370;" d="M1654.721,273.028c0.975,10.761-12.618,11.839-13.35,1.057
			C1640.396,263.325,1653.989,262.247,1654.721,273.028z"/>
		<path style="fill:#C16256;" d="M1651.555,270.209C1651.555,270.209,1651.555,270.209,1651.555,270.209
			c-1.334-4.277-9.586,0.18-6.099,0.38c0.016-0.188,3.674-2.323,4.784-0.422c-3.599,1.648-4.868,8.309-2.772,6.175
			c0.004-0.04,0.479-3.836,3.311-5.24C1652.068,280.827,1653.415,274.107,1651.555,270.209z"/>
		<path style="fill:#F4D4BE;" d="M1650.488,279.4c0.465,1.492-1.89,2.188-2.31,0.683
			C1647.713,278.591,1650.067,277.895,1650.488,279.4z"/>
		<path style="fill:#23659B;" d="M1615.419,367.53c0.01,3.114-4.88,3.058-4.799-0.055
			C1610.61,364.361,1615.5,364.417,1615.419,367.53z"/>
		<path style="fill:#23659B;" d="M1610.514,384.373c0.01,3.114-4.88,3.058-4.799-0.055
			C1605.705,381.205,1610.595,381.261,1610.514,384.373z"/>
		<path style="fill:#23659B;" d="M1610.341,399.579c0.01,3.114-4.88,3.058-4.799-0.055
			C1605.532,396.411,1610.422,396.467,1610.341,399.579z"/>
		<path style="fill:#CE3932;" d="M1525.045,658.672c0.358,7.549,0.565,12.106,0.565,12.106c-27.243,8.431-41.736-0.476-41.736-0.476
			s-0.493-3.754-1.589-10.295C1482.609,660.173,1499.502,668.72,1525.045,658.672z"/>
		<path style="fill:#CE3932;" d="M1585.135,671.456c-27.243,8.431-41.736-0.476-41.736-0.476s-0.872-3.505-2.341-9.554
			c0,0,14.877,7.954,42.767,0.488C1584.577,667.886,1585.135,671.456,1585.135,671.456z"/>
		<path style="fill:#E57D61;" d="M1603.804,463.04c-5.342,0.103,14.25-13.012,20.012-9.685c0.042,0.471-0.304,0.887-0.774,0.929
			C1612.089,455.303,1604.726,463.017,1603.804,463.04z"/>
		<path style="fill:#E57D61;" d="M1612.035,463.436c-4.033-1.776,8.59-4.597,14.842-6.213c0.46-0.092,0.912,0.212,1.003,0.675
			c0.09,0.463-0.212,0.912-0.675,1.002C1620.549,460.192,1612.705,463.371,1612.035,463.436z"/>
		<path style="fill:#C16256;" d="M1616.253,270.465c-0.131-0.001-0.263-0.045-0.372-0.133c-3.381-2.709-6.494-1.876-6.625-1.839
			c-0.323,0.091-0.658-0.096-0.75-0.418c-0.092-0.322,0.092-0.657,0.414-0.75c0.153-0.046,3.826-1.062,7.72,2.058
			c0.262,0.21,0.304,0.593,0.095,0.854C1616.613,270.389,1616.433,270.467,1616.253,270.465z"/>
		<path style="fill:#C16256;" d="M1607.664,291.234c0.085-0.1,0.203-0.173,0.341-0.201c4.246-0.86,5.602-3.783,5.657-3.907
			c0.137-0.307,0.495-0.444,0.802-0.308c0.306,0.136,0.445,0.492,0.31,0.799c-0.063,0.146-1.637,3.618-6.527,4.608
			c-0.329,0.066-0.65-0.146-0.717-0.475C1607.492,291.559,1607.547,291.371,1607.664,291.234z"/>
		<path style="fill:#C16256;" d="M1598.385,271.728c-0.117-0.001-0.235-0.036-0.339-0.108c-0.277-0.191-0.345-0.57-0.154-0.846
			c0.081-0.117,2.007-2.859,5.164-2.701c0.335,0.017,0.593,0.302,0.576,0.638c-0.017,0.336-0.3,0.6-0.638,0.576
			c-2.481-0.108-4.087,2.155-4.103,2.178C1598.773,271.639,1598.58,271.731,1598.385,271.728z"/>
	</g>
	<g id="_x31_">
		<path style="fill:#F99370;" d="M1542.189,1764.826l46.761-23.702c-1.44-2.3-7.197-7.258-10.216-17.528
			c-16.308-55.472-42.156-108.823-46.172-117.4l-43.333,8.967l68.154,112.985c2.608,3.862,2.098,9.024-1.196,12.322
			c-6.972,7.571-17.044,10.922-19.754,20.122C1535.875,1763.826,1539.26,1766.31,1542.189,1764.826z"/>
		<path style="fill:#EB5648;" d="M1588.085,1735.873c0.614,1.687,0.957,3.453,0.866,5.25l-47.478,24.066
			c-2.309,1.17-5.131-0.254-5.469-2.819c-0.776-6.002,1.739-16.558,23.044-28.796c0,0,8.568-1.559,19.686-9.979
			C1578.734,1723.596,1585.606,1729.03,1588.085,1735.873z"/>
		<path style="fill:#E8C0A6;" d="M1549.128,1753.611c-0.378,0.185-0.846,0.137-1.182-0.156c-3.915-3.408-7.718-3.131-7.878-3.118
			c-1.382,0.141-1.588-2.04-0.197-2.147c0.196-0.019,4.847-0.405,9.492,3.639
			C1549.943,1752.313,1549.809,1753.294,1549.128,1753.611z"/>
		<path style="fill:#E8C0A6;" d="M1556.145,1748.921c-0.408,0.199-0.915,0.124-1.248-0.219c-4.034-4.165-9.553-4.291-9.608-4.293
			c-4.511-3.351,6.222-2.75,11.156,2.793C1556.957,1747.71,1556.794,1748.616,1556.145,1748.921z"/>
		<path style="fill:#E8C0A6;" d="M1564.121,1743.564c-0.396,0.193-0.886,0.13-1.221-0.193c-4.412-4.25-9.985-4.957-10.041-4.964
			c-4.113-3.823,6.32-1.947,11.536,3.411C1564.935,1742.317,1564.783,1743.254,1564.121,1743.564z"/>
		<path style="fill:#CE3932;" d="M1535.992,1762.278l52.093-26.405c0.614,1.687,0.957,3.453,0.866,5.25l-47.478,24.066
			C1539.134,1766.379,1536.269,1764.887,1535.992,1762.278z"/>
		<path style="fill:#F99370;" d="M1393.517,1763.732l53.193-0.148c0.896-2.802-2.093-15.606-1.251-20.253
			c17.889-98.746,15.346-133.786,15.647-137.696l-50.773-3.923l14.01,136.085c0.594,4.622-2.18,9.005-6.604,10.47
			c-9.853,3.889-21.898,1.777-27.51,10.461C1389.11,1761.053,1390.936,1763.74,1393.517,1763.732z"/>
		<path style="fill:#EB5648;" d="M1448.297,1758.505c-0.21,1.783-0.697,3.516-1.586,5.08l-53.222,0.148
			c-2.588,0.007-4.469-2.534-3.618-4.978c2.003-5.71,8.993-14.01,33.521-15.361c0,0,8.354,2.461,22.068-0.061
			C1445.46,1743.332,1449.157,1751.277,1448.297,1758.505z"/>
		<path style="fill:#E8C0A6;" d="M1404.843,1756.576c-1.784-4.34-5.79-6.974-5.937-6.743c-1.297-0.496-0.502-2.534,0.79-2.007
			c0.183,0.073,4.51,1.819,6.843,7.52C1406.99,1756.353,1405.644,1757.308,1404.843,1756.576z"/>
		<path style="fill:#E8C0A6;" d="M1413.219,1755.541c-1.625-5.054-6.852-8.917-6.986-8.655c-1.249-0.618-0.241-2.578,0.991-1.915
			c0.231,0.12,5.712,3.009,7.721,9.427C1415.296,1755.394,1413.985,1756.243,1413.219,1755.541z"/>
		<path style="fill:#E8C0A6;" d="M1422.751,1754.343c-2.473-7.154-8.368-9.168-7.365-10.908c1.467-1.703,6.274,2.923,9.08,9.728
			C1424.857,1754.165,1423.531,1755.057,1422.751,1754.343z"/>
		<path style="fill:#CE3932;" d="M1389.901,1758.668l58.395-0.162c-0.21,1.783-0.697,3.516-1.586,5.08l-53.222,0.148
			C1390.865,1763.744,1388.977,1761.123,1389.901,1758.668z"/>
		<path style="fill:#F99370;" d="M1432.18,1376.564c-66.139-14.604-105.056-80.368-105.538-145.163
			c-0.3-7.535,10.709-10.106,13.818-3.345c24.427,54.471,41.648,90.056,101.867,109.148
			C1468.041,1343.96,1457.937,1383.085,1432.18,1376.564z"/>
		<path style="fill:#F99370;" d="M1475.301,1337.097c76.24,2.809,155.714,81.828,53.923,123.774
			c-10.361,3.897-14.023-7.624-6.189-14.051c59.811-49.076-11.236-62.677-52.365-69.342
			C1444.49,1373.704,1449.003,1334.826,1475.301,1337.097z"/>
		<path style="fill:#CE4ABF;" d="M1578.573,1399.827c-0.567,2.531-1.475,3.85-1.475,3.85c0.382-0.635-23.807-2.006-31.419,8.213
			c-3.796-0.09-11.815-3.708-15.66-8.714c-6.741-7.424-20.808-12.838-27.242-15.238l-32.72-62.315
			C1486.01,1319.47,1583.949,1353.25,1578.573,1399.827z"/>
		<path style="fill:#EB5648;" d="M1406.862,1601.71c0.571,6.838,0.999,10.832,0.999,10.832
			c67.047,24.442,131.658,0.329,131.658,0.329c-0.077-2.788-0.022-5.641,0.132-8.561c1.504-29.688,13.258-66.279,8.045-103.2
			c-5.729-40.542-19.887-62.833-19.887-62.833l-111.387,5.96C1398.971,1484.187,1404.316,1571.21,1406.862,1601.71z"/>
		<path style="fill:#F99370;" d="M1344.592,1208.973c-2.9-0.576-3.133,6.437-5.066,8.318c-2.1-4.261-2.984-9.163-3.012-9.178
			c0.023-5.884,0.365-11.755,0.972-17.614c-3.709-8.142-5.592,14.292-6.178,16.458c-0.029,0.002-0.059,0.005-0.088,0.008
			c-1.262-6.032-2.196-12.144-2.609-18.294c-5.656-7.515-2.26,17.353-2.177,19.685c-0.013,0.006-0.026,0.013-0.039,0.02
			c-2.147-5.472-3.627-11.211-4.478-17.032c-6.372-7.065-0.962,17.927-0.119,20.136c-0.018,0.015-0.035,0.03-0.053,0.045
			c-2.313-4.052-4.108-8.399-5.667-12.802c-6.88-5.73,0.875,15.227,1.866,17.166c0.014,1.68,3.327,9.655,9.41,18.23
			c1.994,2.81,10.998-0.626,12.448-3.683c1.359-2.867,2.1-7.129,2.41-8.661C1343.304,1218.888,1347.424,1211.128,1344.592,1208.973z
			"/>
		<path style="fill:#CE3932;" d="M1525.604,1608.898c-0.026-0.269-2.597-27.468,1.854-76.677
			c4.378-48.411-14.015-92.639-14.202-93.079l4.085-1.727c0.191,0.451,19.015,45.658,14.534,95.205
			c-4.409,48.738-1.883,75.578-1.857,75.844L1525.604,1608.898z"/>
		<path style="fill:#CE3932;" d="M1420.438,1611.266c-10.563-78.01,6.813-168.163,6.989-169.065l4.352,0.854
			c-0.176,0.895-17.409,90.348-6.946,167.617L1420.438,1611.266z"/>
		<path style="fill:#CE3932;" d="M1438.904,1615.301c-3.703-58.951,4.402-169.871,4.485-170.984l4.423,0.327
			c-0.082,1.111-8.165,111.731-4.482,170.381L1438.904,1615.301z"/>
		<path style="fill:#CE3932;" d="M1458.828,1615.168c-0.001-0.439-0.088-44.387,3.246-82.18c3.308-37.516,0.029-87.857-0.004-88.361
			l4.425-0.294c0.034,0.508,3.335,51.183-0.004,89.045c-3.316,37.595-3.229,81.34-3.228,81.778L1458.828,1615.168z"/>
		<path style="fill:#CE3932;" d="M1487.012,1615.237c-0.014-0.416-1.394-42.1,0-82.131c1.384-39.738-6.565-88.724-6.646-89.215
			l4.377-0.718c0.081,0.495,8.101,49.914,6.701,90.087c-1.39,39.875-0.014,81.412,0,81.827L1487.012,1615.237z"/>
		<path style="fill:#CE3932;" d="M1506.571,1611.24c-1.7-18.17-1.25-36.423-0.628-61.687c0.191-7.735,0.407-16.502,0.582-26.115
			c0.733-40.165-10.224-80.825-10.335-81.231l4.278-1.168c0.112,0.412,11.234,41.663,10.49,82.478
			c-0.176,9.628-0.391,18.402-0.582,26.144c-0.642,26.048-1.066,43.255,0.609,61.164L1506.571,1611.24z"/>
		
			<rect x="1450.016" y="1303.505" transform="matrix(0.9957 -0.0922 0.0922 0.9957 -115.122 140.2073)" style="fill:#F99370;" width="19.085" height="24.563"/>
		<path style="fill:#F99370;" d="M1483.886,1284.694c1.902,37.452-58.455,37.523-56.016-0.493
			c0.131-7.501,2.332-12.689,2.484-24.645c0.349-27.68,39.182-32.749,45.34-4.406
			C1478.117,1266.331,1483.01,1274.285,1483.886,1284.694z"/>
		<path style="fill:#A523A2;" d="M1548.803,1408.876c-1.136,0.841-2.135,1.93-3.124,3.014c0,0-8.531-0.446-15.661-8.714
			c-5.768-6.681-20.038-12.53-25.269-14.516l5.56-17.49c0,0,14.569,13.213,22.071,26.212
			C1539.698,1410.069,1548.389,1408.929,1548.803,1408.876z"/>
		<path style="fill:#CE4ABF;" d="M1527.811,1438.279c0,0-45.688,16.879-111.389,5.96c-1.503-15.846-1.513-46.237,2.599-66.053
			c8.714-65.226,84.299-85.389,97.078,19.829C1519.051,1415.666,1520.836,1423.737,1527.811,1438.279z"/>
		<path style="fill:#CE4ABF;" d="M1451.088,1327.822l-32.076,50.364c-41.1-12.03-89.912-49.183-84.867-81.394l0.007-0.001
			c1.115-4.318,3.099-6.656,3.099-6.656c17.881,0.116,27.558-13.511,27.558-13.511
			C1392.949,1283.011,1389.909,1323.766,1451.088,1327.822z"/>
		<path style="fill:#662948;" d="M1433.158,1245.161c0,0-14.378,4.766,0.91,27.774c9.452,14.224-14.653,35.753,4.678,55.058
			c44.862,58.994,172.998,29.024,103.147-34.365c-20.944-11.263-20.036-22.783-27.065-37.262
			C1505.465,1237.082,1463.002,1200.825,1433.158,1245.161z"/>
		<path style="fill:#A523A2;" d="M1578.573,1399.827c-0.567,2.531-1.475,3.85-1.475,3.85c0.382-0.635-23.807-2.006-31.419,8.213
			c0,0-2.617-0.14-6.165-1.665C1539.514,1410.225,1554.519,1390.17,1578.573,1399.827z"/>
		<path style="fill:#A523A2;" d="M1373.192,1279.944c-21.092,23.51-39.04,16.846-39.04,16.846c1.115-4.318,3.099-6.656,3.099-6.656
			c17.881,0.116,27.558-13.511,27.558-13.511C1367.979,1276.852,1370.708,1278.461,1373.192,1279.944z"/>
		<path style="fill:#A523A2;" d="M1429.603,1369.49c-0.412,1.112-13.704,36.873-13.799,60.791
			c-0.456-14.272,0.14-36.046,3.216-52.096C1419.302,1378.137,1422.936,1376.624,1429.603,1369.49z"/>
		<path style="fill:#CE3932;" d="M1406.862,1601.71c0.571,6.838,0.999,10.832,0.999,10.832
			c67.047,24.442,131.658,0.329,131.658,0.329c-0.077-2.788-0.022-5.641,0.132-8.561l-0.011-0.011
			C1539.64,1604.3,1468.268,1625.252,1406.862,1601.71z"/>
	</g>
</g>
</svg>
